<svg width="334" height="63" viewBox="0 0 334 63" fill="none" xmlns="http://www.w3.org/2000/svg">
<path d="M30.711 59.36L16.983 62.44C15.8508 62.72 14.5771 61.74 14.4356 60.34L11.6051 35.42C11.4635 34.3 10.6144 33.6 9.62371 33.88L5.23642 35C4.38727 35.28 3.3966 34.58 3.25507 33.46L1.98133 24.92C1.8398 23.94 2.40592 22.96 3.25507 22.68L25.7576 16.94C26.6068 16.66 29.0127 16.94 29.1542 17.92L31.2771 26.18C31.5602 27.3 30.994 28.28 30.0034 28.56L23.3517 30.1C22.5025 30.38 25.6161 38.5 25.8991 39.62L31.8432 56.98C32.1263 58.1 31.5601 59.22 30.711 59.36Z" fill="black"/>
<path d="M54.3457 53.34L53.072 41.02C52.9305 39.9 52.0814 39.2 51.0907 39.34L48.2602 40.04C47.411 40.18 48.1186 41.02 48.1186 42L48.8263 54.32C48.8263 55.3 48.2602 56.14 47.5525 56.28L39.3441 58.1C38.4949 58.38 37.5042 57.68 37.3627 56.56L31.8432 19.88C31.7017 18.9 32.2678 17.92 33.1169 17.64L43.3068 14.7C44.2975 14.42 45.2881 15.26 45.2881 16.38L45.7127 26.18C45.7127 27.3 46.7034 28.14 47.6941 27.86L50.2415 27.16C51.0907 26.88 51.6568 26.04 51.5152 25.06L50.5246 14.84C50.383 13.86 51.0907 12.88 51.9398 12.74L62.2712 10.78C63.2619 10.64 64.111 11.48 64.111 12.6L66.5169 51.8C66.5169 52.78 65.9508 53.62 65.2432 53.76L56.3271 55.16C55.3364 55.3 54.4873 54.46 54.3457 53.34Z" fill="black"/>
<path d="M69.0644 11.2L88.1703 7.70001C89.0195 7.56001 91.0008 8.12 91.1424 9.24L92.2746 17.5C92.4161 18.62 90.7178 19.6 89.7271 19.74L81.2356 21C80.3864 21.14 79.6788 22.12 79.8203 23.1V23.24C79.9618 24.22 80.811 25.06 81.6602 24.92L87.8873 23.94C88.7364 23.8 89.5856 24.5 89.7271 25.62L90.2932 31.08C90.4347 32.2 89.7271 33.04 88.878 33.18L82.6508 34.02C81.6601 34.16 81.094 35.14 81.2356 36.26C81.3771 37.24 82.0847 37.94 83.0754 37.8L92.2746 36.68C93.1237 36.54 95.6712 37.1 95.8127 38.08L96.8034 44.52C97.2279 47.18 95.6712 49.56 93.4068 49.98L73.1686 53.06C72.3195 53.2 71.4703 52.5 71.3288 51.38L67.7907 13.44C67.6491 12.32 68.2152 11.34 69.0644 11.2Z" fill="black"/>
<path d="M111.664 5.74L137.138 3.78C137.846 3.78 138.412 4.48 138.129 5.32L130.062 29.68C129.779 30.38 130.345 31.22 131.053 31.22L138.412 30.52C138.978 30.52 140.959 31.08 140.818 31.78V44.94C140.818 45.5 140.393 45.92 139.969 45.92L110.956 47.46C110.248 47.46 109.682 46.62 109.965 45.92L118.881 22.26C119.164 21.56 120.014 20.72 119.306 20.72L110.814 21.28C110.248 21.28 109.824 20.72 109.824 20.02L110.673 6.86C110.814 6.16 111.239 5.74 111.664 5.74Z" fill="black"/>
<path d="M160.065 2.93998C164.736 2.79998 168.698 4.75998 171.953 8.81998C175.35 13.3 177.048 18.62 177.048 24.64C177.19 30.66 175.633 35.84 172.378 40.18C169.264 43.96 165.443 45.92 160.773 46.06C156.103 46.2 152.14 44.38 148.885 40.88C145.63 36.68 143.79 31.64 143.79 25.62C143.648 19.6 145.205 14.14 148.319 9.51998C151.574 5.17998 155.395 2.93998 160.065 2.93998ZM160.348 17.92C159.075 17.92 157.942 18.62 156.952 19.88C156.103 21.56 155.536 23.38 155.678 25.06C155.678 26.88 156.244 28.42 157.235 29.82C158.225 31.08 159.358 31.64 160.773 31.64C162.188 31.64 163.32 30.94 164.169 29.68C165.16 28.14 165.585 26.6 165.443 24.78C165.443 23.1 164.877 21.28 163.886 19.6C162.896 18.48 161.622 17.92 160.348 17.92Z" fill="black"/>
<path d="M200.966 16.94L208.325 2.93999C208.75 2.09999 209.741 2.23999 210.024 3.21999L224.884 43.4C225.025 44.1 224.742 44.8 224.035 44.8L212.005 45.78C211.581 45.78 211.156 45.5 211.014 45.08L207.193 32.62C206.91 31.78 205.92 31.64 205.495 32.48L200.542 42C200.117 42.7 199.268 42.7 198.843 42L194.031 32.34C193.607 31.5 192.475 31.64 192.333 32.62L189.22 45.5C189.078 46.06 188.512 46.48 187.946 46.2L175.916 42.98C175.35 42.84 175.067 42.14 175.35 41.58L190.776 2.8C191.059 1.96 192.05 1.82 192.475 2.66L199.409 16.94C199.692 17.64 200.542 17.64 200.966 16.94Z" fill="black"/>
<path d="M226.016 4.89998C226.016 4.33998 226.582 3.77998 227.007 3.91998L243.707 5.73998C246.537 5.87998 248.802 6.99998 250.783 9.09998C252.623 11.06 253.614 13.44 253.472 16.24C253.331 18.48 252.481 20.3 250.925 21.84C250.075 22.68 248.943 23.38 247.811 23.8C246.962 24.08 246.962 25.34 247.669 25.76C248.802 26.6 249.792 27.58 250.5 28.98C251.915 31.22 252.481 33.74 252.34 36.54C252.057 42 248.094 45.22 240.31 46.34C237.904 46.62 234.791 46.76 230.969 46.76C230.969 46.76 230.969 46.76 230.828 46.76C228.281 46.48 225.45 46.2 224.176 46.06C223.469 46.06 226.016 4.89998 226.016 4.89998ZM241.867 33.6C241.867 32.48 241.584 31.5 241.018 30.8C240.31 30.1 239.603 29.68 238.753 29.54H238.612C237.48 29.4 236.914 29.82 236.631 30.66C236.631 30.66 236.489 31.78 236.489 33.74C236.347 35.14 236.489 35.98 236.489 36.26C236.631 36.82 237.197 37.1 238.187 37.1H238.329C239.178 37.1 240.027 36.82 240.735 36.26C241.442 35.56 241.867 34.72 241.867 33.6ZM242.575 19.18C242.858 17.78 242.292 16.24 241.159 15.4C240.593 14.98 240.027 14.7 239.178 14.7H239.036C238.046 14.7 237.338 14.98 237.197 15.82L237.055 18.62C236.914 20.02 236.914 21 237.055 21.28C237.197 21.84 237.763 22.12 238.612 22.26H238.895C239.744 22.26 240.593 21.98 241.301 21.42C242.15 20.72 242.433 20.02 242.575 19.18Z" fill="black"/>
<path d="M271.163 9.1L270.03 49.56C270.03 50.12 269.606 50.68 269.04 50.68L254.038 49.14C253.472 49.14 253.047 48.58 253.189 47.88L259.982 8.26C259.982 7.7 260.548 7.28 260.973 7.28L270.314 7.98C270.738 7.98 271.163 8.4 271.163 9.1Z" fill="black"/>
<path d="M278.097 9.66L298.76 11.34C299.326 11.34 299.751 11.9 299.609 12.6L298.902 22.54C298.902 23.1 298.336 23.66 297.911 23.52L288.146 22.4C287.58 22.4 287.155 22.82 287.155 23.38L287.014 25.06C287.014 25.62 287.297 26.18 287.863 26.32L295.364 27.16C295.93 27.16 296.213 27.72 296.213 28.42L295.647 35.56C295.647 36.12 295.081 36.68 294.514 36.54L286.872 35.56C286.306 35.42 285.881 35.98 285.74 36.54L285.598 38.08C285.598 38.64 285.881 39.2 286.447 39.34L296.92 40.74C297.486 40.74 297.769 41.3 297.769 41.86L297.203 52.78C297.203 53.48 296.637 53.9 296.213 53.9L271.729 51.38C271.163 51.38 270.738 50.82 270.88 50.12L276.824 10.78C277.248 10.08 277.673 9.66 278.097 9.66Z" fill="black"/>
<path d="M314.328 57.54C309.092 56.56 305.129 54.04 302.581 49.98C301.025 47.32 300.317 44.8 300.458 42.14C300.458 41.72 300.458 41.3 300.6 41.02C300.6 40.46 312.771 42.98 312.771 42.98C312.771 43.12 312.63 43.4 312.63 43.54C312.488 44.24 312.63 44.8 313.054 45.36C313.337 45.92 313.762 46.34 314.328 46.62C314.469 46.62 314.611 46.76 314.753 46.76C315.319 46.9 315.885 46.76 316.451 46.48C317.158 46.06 317.725 45.22 317.866 44.1V43.82C318.008 42.28 317.441 41.02 316.026 40.04C315.743 39.9 313.762 38.78 309.799 37.1C307.393 35.84 305.695 34.44 304.563 33.04C303.006 30.94 302.581 28.28 303.006 25.06C303.43 21.56 305.27 18.76 308.242 16.8C311.073 14.98 314.328 14.28 318.008 14.56C318.432 14.56 318.998 14.7 319.423 14.7C323.244 15.54 327.914 15.12 329.896 17.08C332.443 19.74 333.858 25.06 333.858 29.26C333.858 29.96 333.434 30.38 332.868 30.38L323.103 29.54C322.678 29.54 322.395 29.12 322.253 28.7C322.112 28.14 321.97 27.58 321.687 26.88C321.404 26.18 320.98 25.9 320.272 25.76C320.13 25.76 319.989 25.76 319.847 25.76C319.14 25.76 318.432 26.04 317.866 26.46C317.3 26.88 317.017 27.3 317.017 27.86C317.017 28 317.017 28.14 317.017 28.28C317.017 30.24 319.281 32.34 323.527 34.72C326.075 36.12 329.471 34.72 330.745 36.96C332.16 39.34 331.169 44.94 330.886 47.46C330.462 51.1 328.48 53.9 325.225 55.86C322.253 57.68 318.574 58.24 314.328 57.54Z" fill="black"/>
<path d="M26.6068 50.68L16.983 52.78C15.8508 53.06 14.5771 52.22 14.4356 50.96L11.6051 29.82C11.4635 28.84 10.6144 28.28 9.62371 28.42L5.23642 29.4C4.38727 29.54 3.3966 28.98 3.25507 28.14L1.98133 20.86C1.8398 20.02 2.40592 19.18 3.25507 19.04L25.7576 14.14C26.6068 14 27.4559 14.42 27.5974 15.26L29.7203 22.26C30.0034 23.1 29.4373 24.08 28.4466 24.22L23.3517 25.34C22.5025 25.48 21.9364 26.46 22.078 27.3L27.739 48.58C28.022 49.56 27.4559 50.4 26.6068 50.68Z" fill="white" stroke="black" stroke-width="2" stroke-miterlimit="10"/>
<path d="M54.3457 44.94L53.072 34.58C52.9305 33.6 52.0814 33.04 51.0907 33.18L48.2602 33.88C47.411 34.02 46.9864 34.72 46.9864 35.56L47.6941 45.92C47.6941 46.76 47.128 47.46 46.4203 47.6L39.3441 49C38.4949 49.14 37.5042 48.58 37.3627 47.74L31.8432 16.66C31.7017 15.82 32.2678 14.98 33.1169 14.84L43.3068 12.32C44.2975 12.04 45.2881 12.74 45.2881 13.72L45.7127 21.98C45.7127 22.96 46.7034 23.66 47.6941 23.52L50.2415 22.96C51.0907 22.82 51.6568 21.98 51.5152 21.28L50.5246 12.6C50.383 11.76 51.0907 10.92 51.9398 10.78L62.2712 9.09999C63.2619 8.95999 64.111 9.65999 64.111 10.64L65.2432 43.4C65.2432 44.24 64.6771 44.94 63.9695 45.08L56.3271 46.34C55.3364 46.48 54.4873 45.92 54.3457 44.94Z" fill="white" stroke="black" stroke-width="2" stroke-miterlimit="10"/>
<path d="M69.0644 9.24L88.1703 6.30001C89.0195 6.16001 89.8686 6.72001 90.0102 7.70001L91.1424 14.7C91.2839 15.54 90.5763 16.38 89.7271 16.52L81.2356 17.64C80.3864 17.78 79.6788 18.62 79.8203 19.46V19.6C79.9618 20.44 80.811 21.14 81.6602 21L87.8873 20.16C88.7364 20.02 89.5856 20.72 89.7271 21.56L90.2932 26.18C90.4347 27.02 89.7271 27.86 88.878 28L82.6508 28.7C81.6602 28.84 81.094 29.68 81.2356 30.52C81.3771 31.36 82.0847 31.92 83.0754 31.92L92.2746 30.94C93.1237 30.8 93.9729 31.5 94.1144 32.34L95.1051 37.8C95.5297 40.04 93.9729 42.14 91.7085 42.42L73.1686 44.94C72.3195 45.08 71.4703 44.38 71.3288 43.54L67.7907 11.48C67.6491 10.22 68.2152 9.38 69.0644 9.24Z" fill="white" stroke="black" stroke-width="2" stroke-miterlimit="10"/>
<path d="M113.079 4.61997L138.553 2.93997C139.261 2.93997 139.827 3.63997 139.544 4.19997L131.477 24.78C131.194 25.48 131.76 26.18 132.468 26.04L139.827 25.48C140.393 25.48 140.959 25.9 140.818 26.46L140.11 37.8C140.11 38.22 139.686 38.64 139.261 38.64L114.636 40.04C113.928 40.04 113.362 39.34 113.645 38.78L121.853 18.62C122.136 17.92 121.57 17.22 120.863 17.36L112.371 17.78C111.805 17.78 111.38 17.36 111.38 16.8L112.23 5.59997C112.23 5.03997 112.654 4.61997 113.079 4.61997Z" fill="white" stroke="black" stroke-width="2" stroke-miterlimit="10"/>
<path d="M160.065 2.23999C164.736 2.09999 168.698 3.77999 171.953 7.13999C175.35 10.92 177.048 15.4 177.048 20.58C177.19 25.62 175.633 29.96 172.378 33.74C169.264 36.96 165.443 38.5 160.773 38.64C156.103 38.78 152.14 37.24 148.885 34.16C145.63 30.66 143.79 26.32 143.79 21.28C143.648 16.1 145.205 11.62 148.319 7.69999C151.574 4.19999 155.395 2.37999 160.065 2.23999ZM160.348 14.98C159.075 14.98 157.942 15.54 156.952 16.66C156.103 18.06 155.536 19.6 155.678 21C155.678 22.54 156.244 23.8 157.235 25.06C158.225 26.04 159.358 26.6 160.773 26.6C162.188 26.6 163.32 26.04 164.169 24.92C165.16 23.66 165.585 22.26 165.443 20.72C165.443 19.18 164.877 17.78 163.886 16.38C162.896 15.4 161.622 14.98 160.348 14.98Z" fill="white" stroke="black" stroke-width="2" stroke-miterlimit="10"/>
<path d="M200.966 14.14L208.325 2.37999C208.75 1.67999 209.741 1.81998 210.024 2.51998L221.346 36.54C221.487 37.1 221.204 37.66 220.497 37.8L212.005 38.64C211.58 38.64 211.156 38.36 211.014 38.08L207.193 27.58C206.91 26.88 205.919 26.74 205.495 27.44L200.542 35.56C200.117 36.12 199.268 36.12 198.843 35.56L194.031 27.44C193.607 26.74 192.475 26.88 192.333 27.72L189.219 38.64C189.078 39.2 188.512 39.48 187.946 39.34L179.454 36.68C178.888 36.54 178.605 35.98 178.888 35.42L190.635 2.51998C190.918 1.81998 191.908 1.67999 192.333 2.37999L199.268 14.42C199.692 14.7 200.542 14.7 200.966 14.14Z" fill="white" stroke="black" stroke-width="2" stroke-miterlimit="10"/>
<path d="M226.016 3.91999C226.016 3.35999 226.582 2.93999 227.007 3.07999L243.707 4.61999C246.537 4.75999 248.802 5.73999 250.783 7.41999C252.623 9.09999 253.614 11.06 253.472 13.44C253.33 15.4 252.481 16.94 250.925 18.2C250.075 18.9 248.943 19.46 247.811 19.88C246.962 20.16 246.962 21.14 247.669 21.56C248.802 22.26 249.792 23.1 250.5 24.22C251.915 26.18 252.481 28.28 252.34 30.52C252.057 35.14 248.094 37.94 240.31 38.78C237.904 39.06 234.791 39.2 230.969 39.2C230.969 39.2 230.969 39.2 230.828 39.2C228.28 38.92 226.299 38.78 225.025 38.78C224.318 38.78 226.016 3.91999 226.016 3.91999ZM241.867 28.14C241.867 27.16 241.584 26.46 241.018 25.76C240.31 25.06 239.603 24.78 238.753 24.64H238.612C237.48 24.64 236.914 24.92 236.63 25.62C236.63 25.62 236.489 26.6 236.489 28.14C236.347 29.26 236.489 29.96 236.489 30.24C236.63 30.66 237.197 30.94 238.187 30.94H238.329C239.178 30.94 240.027 30.8 240.735 30.24C241.442 29.82 241.867 29.12 241.867 28.14ZM242.575 15.96C242.858 14.7 242.291 13.44 241.159 12.74C240.593 12.32 240.027 12.18 239.178 12.04H239.036C238.046 12.04 237.338 12.32 237.197 13.02L237.055 15.4C236.914 16.66 236.914 17.36 237.055 17.64C237.197 18.2 237.763 18.34 238.612 18.48H238.895C239.744 18.48 240.593 18.2 241.301 17.78C242.15 17.36 242.433 16.66 242.575 15.96Z" fill="white" stroke="black" stroke-width="2" stroke-miterlimit="10"/>
<path d="M271.163 7.55999L269.04 41.44C269.04 42 268.615 42.42 268.049 42.28L256.303 41.72C255.736 41.72 255.312 41.16 255.453 40.6L259.982 6.85999C259.982 6.29999 260.548 6.01999 260.973 6.01999L270.314 6.57999C270.738 6.57999 271.163 6.99999 271.163 7.55999Z" fill="white" stroke="black" stroke-width="2" stroke-miterlimit="10"/>
<path d="M278.097 7.97998L298.76 9.37998C299.326 9.37998 299.751 9.93998 299.609 10.36L298.902 18.76C298.902 19.32 298.336 19.74 297.911 19.6L288.146 18.62C287.58 18.62 287.155 18.9 287.155 19.46L287.014 20.86C287.014 21.42 287.297 21.84 287.863 21.84L295.364 22.54C295.93 22.54 296.213 23.1 296.213 23.52L295.647 29.54C295.647 30.1 295.081 30.52 294.514 30.38L286.872 29.54C286.306 29.54 285.881 29.82 285.74 30.38L285.598 31.64C285.598 32.2 285.881 32.62 286.447 32.62L296.92 33.88C297.486 33.88 297.769 34.44 297.769 34.86L297.203 44.1C297.203 44.66 296.637 45.08 296.213 44.94L273.71 42.98C273.144 42.98 272.719 42.42 272.861 41.86L276.824 8.53998C277.248 8.39998 277.673 7.97998 278.097 7.97998Z" fill="white" stroke="black" stroke-width="2" stroke-miterlimit="10"/>
<path d="M314.328 48.44C309.092 47.6 305.129 45.5 302.581 42C301.025 39.76 300.317 37.66 300.458 35.28C300.458 35 300.458 34.58 300.6 34.3C300.6 33.88 312.771 35.98 312.771 35.98C312.771 36.12 312.63 36.26 312.63 36.4C312.488 36.96 312.63 37.52 313.054 37.94C313.337 38.5 313.762 38.78 314.328 39.06C314.469 39.06 314.611 39.2 314.753 39.2C315.319 39.34 315.885 39.2 316.451 38.92C317.158 38.5 317.725 37.94 317.866 36.96V36.68C318.008 35.42 317.441 34.3 316.026 33.46C315.743 33.32 313.762 32.48 309.799 30.94C307.393 29.82 305.695 28.7 304.563 27.44C303.006 25.62 302.581 23.38 303.006 20.72C303.43 17.78 305.27 15.4 308.242 13.72C311.073 12.18 314.328 11.62 318.008 11.9C318.432 11.9 318.998 12.04 319.423 12.04C323.244 12.74 326.075 13.86 328.056 15.68C330.603 17.92 331.877 20.72 331.877 24.22C331.877 24.78 331.453 25.2 330.886 25.2L322.961 24.64C322.536 24.64 322.253 24.36 322.112 23.94C321.97 23.52 321.829 22.96 321.546 22.4C321.263 21.84 320.838 21.56 320.131 21.42C319.989 21.42 319.847 21.42 319.706 21.42C318.998 21.42 318.291 21.56 317.725 21.98C317.158 22.26 316.875 22.68 316.875 23.24C316.875 23.38 316.875 23.38 316.875 23.52C316.875 25.2 319.14 27.02 323.386 28.98C325.933 30.1 327.914 31.64 329.188 33.6C330.603 35.56 331.028 37.66 330.745 39.76C330.32 42.84 328.339 45.22 325.084 46.9C322.253 48.58 318.574 49.14 314.328 48.44Z" fill="white" stroke="black" stroke-width="2" stroke-miterlimit="10"/>
</svg>
