<svg width="51" height="76" viewBox="0 0 51 76" fill="none" xmlns="http://www.w3.org/2000/svg">
<path d="M46.6165 31.4997H45.3634V24.7724C45.3634 12.307 36.7893 1.9082 26.0828 1.68835C25.7969 1.68835 25.2034 1.68835 24.9176 1.68835C14.211 1.9082 5.6369 12.329 5.6369 24.7724V31.4997H4.38377C2.47109 31.4997 0.888184 33.7862 0.888184 36.6222V70.4128C0.888184 73.2269 2.44911 75.5573 4.38377 75.5573H46.5946C48.5072 75.5573 50.0901 73.2489 50.0901 70.4128V36.6222C50.1121 33.8081 48.5292 31.4997 46.6165 31.4997ZM37.1411 31.4997H26.0828H24.9176H13.8592V24.7724C13.8592 17.3415 19.0916 11.2078 25.4892 11.2078C31.8867 11.2078 37.1191 17.3415 37.1191 24.7724L37.1411 31.4997Z" fill="black"/>
<path d="M46.6165 26.3552H45.3634V20.5073C45.3634 9.71273 36.7893 0.698962 26.0828 0.501099C25.797 0.501099 25.2034 0.501099 24.9176 0.501099C14.211 0.698962 5.6369 9.71273 5.6369 20.5073V26.3552H4.38377C2.47109 26.3552 0.888184 28.3339 0.888184 30.7961V60.0799C0.888184 62.5202 2.44911 64.5208 4.38377 64.5208H46.5946C48.5072 64.5208 50.0901 62.5202 50.0901 60.0799V30.7742C50.1121 28.3338 48.5292 26.3552 46.6165 26.3552ZM29.4684 45.3941V54.2319C29.4684 55.2432 28.611 56.1007 27.5997 56.1007H23.4226C22.4113 56.1007 21.5539 55.2432 21.5539 54.2319V45.3941C20.5646 44.4267 19.993 43.0856 19.993 41.6127C19.993 38.7986 22.1695 36.4023 24.9176 36.2923C25.2034 36.2704 25.797 36.2704 26.0828 36.2923C28.8309 36.4023 31.0073 38.8206 31.0073 41.6127C31.0073 43.0856 30.4357 44.4267 29.4684 45.3941ZM37.1411 26.3552H26.0828H24.9176H13.8592V20.5073C13.8592 14.0657 19.0916 8.76738 25.4892 8.76738C31.8867 8.76738 37.1191 14.0877 37.1191 20.5073L37.1411 26.3552Z" fill="white" stroke="black" stroke-miterlimit="10"/>
</svg>
