<svg width="351" height="52" viewBox="0 0 351 52" fill="none" xmlns="http://www.w3.org/2000/svg">
<path d="M2.16667 23.8333C2.02222 23.1111 2.45556 22.3889 3.03334 22.2444C4.47779 21.8111 5.77777 21.3777 7.07777 21.0889C13.1444 19.7889 17.6222 20.8 20.8 23.8333C23.2555 26.4333 24.7 29.0333 25.1333 31.7777C26.1444 38.1333 24.1222 43.0444 19.2111 46.5111C16.3222 48.5333 12.5667 50.2666 7.65556 51.8555C6.93334 52 6.21111 51.5666 6.06666 50.7L2.16667 23.8333ZM16.9 33.9444C16.6111 32.2111 15.8889 30.9111 14.7333 30.0444C14.0111 29.4666 13.4333 29.3222 12.8555 29.3222C12.7111 29.3222 12.5667 29.3222 12.4222 29.4666C12.1333 29.4666 11.8445 29.6111 11.7 29.7555L13.1445 39C13.2889 40.1555 14.4444 40.5889 15.1667 39.7222C15.4556 39.2889 15.7445 39 16.0333 38.5666C16.9 37.1222 17.1889 35.5333 16.9 33.9444Z" fill="black"/>
<path d="M49.5448 43.1889L46.3671 39.1444C46.0782 38.8555 45.6448 38.5667 45.2115 38.7111L39.0004 40.1555C38.5671 40.3 38.1337 40.5889 38.1337 41.1667L36.9782 45.7889C36.8337 46.5111 36.1115 46.9444 35.5337 46.8L26.4337 44.9222C25.7115 44.7778 25.2782 43.9111 25.5671 43.0444L37.2671 15.1667C37.5559 14.1555 38.7115 13.8667 39.2893 14.7333L60.5226 33.6555C61.1004 34.2333 60.9559 35.2444 60.2337 35.8222L51.1337 43.6222C50.7004 43.7666 49.9782 43.7667 49.5448 43.1889ZM39.7226 31.2C39.4337 32.2111 40.3004 33.2222 41.1671 32.9333C42.0337 32.7889 42.4671 31.4889 41.8893 30.6222C41.1671 29.7555 40.0115 30.0444 39.7226 31.2Z" fill="black"/>
<path d="M66.5888 11.9889L72.2221 39.4333C72.3666 40.1555 71.9333 40.8778 71.211 41.0222L61.8221 42.4667C61.0999 42.6111 60.5221 42.0333 60.3777 41.1667L58.3555 13.4333C58.3555 12.7111 58.7888 11.9889 59.3666 11.9889L65.1444 10.9778C65.8666 10.6889 66.4444 11.2667 66.5888 11.9889Z" fill="black"/>
<path d="M71.7885 10.2555L78.5773 8.95551C79.2996 8.81107 79.8773 9.38884 80.0218 10.1111L81.7551 27.8777C81.8996 28.6 82.4773 29.1777 83.0551 29.1777L91.144 27.5888C91.7218 27.4444 92.2996 28.0222 92.444 28.7444L94.1773 35.5333C94.3218 36.2555 93.8884 37.1222 93.1662 37.1222L74.244 39.8666C73.5218 40.0111 72.944 39.4333 72.944 38.5666L70.7773 11.8444C70.7773 11.1222 71.2107 10.4 71.7885 10.2555Z" fill="black"/>
<path d="M119.889 6.06665L109.489 35.5333C109.345 35.9666 108.911 36.4 108.478 36.4L99.0891 36.9778C98.2224 37.1222 97.5002 35.9666 97.9335 34.9555L100.967 27.0111C101.111 26.5778 103.422 26.1444 103.134 25.7111L92.3002 10.4C91.7224 9.53332 92.1557 8.37776 93.0224 8.08887L100.534 6.35554C100.967 6.2111 101.545 6.49998 101.834 6.93332L105.878 13.7222C106.456 14.5889 107.611 14.4444 108.045 13.4333L110.211 6.35554C110.356 5.77776 110.934 5.34443 111.511 5.48887L119.889 6.06665Z" fill="black"/>
<path d="M147.189 3.17776C150.511 3.03332 153.4 4.04443 155.855 6.06665C156.433 6.64443 156.578 7.65554 156 8.23332L150.655 14.0111C150.222 14.4444 149.5 14.4444 149.067 14.0111C148.633 13.5778 148.055 13.4333 147.478 13.4333H147.333C146.9 13.4333 146.467 13.7222 146.033 14.1555C145.022 15.3111 144.444 16.9 144.589 19.0666V19.2111C144.733 20.3667 145.022 21.3778 145.6 22.2444C146.033 22.8222 146.755 23.2555 147.478 23.5444C147.911 23.6889 148.489 23.8333 148.922 23.6889C149.933 23.6889 150.8 23.1111 151.811 21.9555C152.244 21.3778 153.4 19.2111 153.833 19.6444L159.178 23.9778C159.755 24.4111 159.322 27.5889 158.889 28.1667C156.433 31.6333 152.678 33.9444 148.344 34.2333C144.444 34.3778 141.267 33.2222 138.522 30.7667C135.778 28.0222 134.333 24.2666 134.189 19.6444C134.044 15.0222 135.2 11.1222 137.8 8.08887C140.111 4.91109 143.289 3.32221 147.189 3.17776Z" fill="black"/>
<path d="M172.9 32.2111L173.044 23.2555C173.044 22.3889 173.333 21.5222 172.611 21.6666L170.444 21.9555C169.866 21.9555 170.155 23.2555 170.011 23.9777L169.577 32.5C169.577 33.2222 169 33.8 168.422 33.8L161.488 33.9444C160.766 33.9444 160.188 33.3666 160.188 32.6444V5.77774C160.188 5.05552 160.622 4.47774 161.2 4.3333L168.855 3.32219C169.577 3.17774 170.155 3.89997 170.155 4.76663L169.722 11.8444C169.722 12.7111 170.3 13.4333 171.022 13.2889L172.9 13.1444C173.477 13.1444 173.911 12.5666 173.911 11.8444L174.055 4.47774C174.055 3.75552 174.633 3.17774 175.211 3.17774L182.866 2.88885C183.588 2.88885 184.166 3.61108 184.022 4.3333L182.144 32.3555C182.144 33.0777 181.566 33.5111 180.988 33.6555L174.055 33.9444C173.477 33.6555 172.9 33.0778 172.9 32.2111Z" fill="black"/>
<path d="M206.412 32.9333L203.812 28.3111C203.523 27.8778 203.234 27.7333 202.8 27.7333L196.445 27.8778C196.012 27.8778 195.578 28.1666 195.434 28.6L193.556 32.9333C193.267 33.5111 192.689 33.8 192.112 33.6555L184.167 28.6C183.445 28.3111 183.156 27.3 183.589 26.5778L198.467 2.74442C198.9 1.87775 200.056 1.87775 200.489 2.74442L218.112 27.1555C218.545 27.8778 218.256 28.8889 217.534 29.1777L208 33.5111C207.423 33.6555 206.7 33.3666 206.412 32.9333ZM198.467 18.9222C198.034 19.9333 198.612 21.0889 199.478 20.9444H199.623C200.489 20.9444 201.067 19.7889 200.634 18.9222V18.7778C200.056 17.9111 198.9 17.9111 198.467 18.9222Z" fill="black"/>
<path d="M219.411 4.04443H226.345C227.067 4.04443 227.5 4.62221 227.5 5.48888L226.923 23.5444C226.923 24.2667 227.356 24.9889 228.078 24.9889L234.867 25.4222C235.445 25.4222 236.6 25.7111 236.6 26.4333V32.9333C236.6 33.6556 236.023 34.3778 235.445 34.3778L217.823 34.5222C217.1 34.5222 216.667 33.8 216.667 33.0778L218.4 5.48888C218.256 4.62221 218.834 4.04443 219.411 4.04443Z" fill="black"/>
<path d="M240.933 5.34442L247.866 5.48886C248.589 5.48886 249.022 6.21109 249.022 6.93331L248.011 24.8444C248.011 25.5666 248.444 26.2889 249.166 26.2889L255.955 26.8666C256.533 26.8666 257.689 27.5889 257.689 28.3111V34.8111C257.689 35.5333 257.111 36.2555 256.389 36.1111L237.9 34.9555C237.178 34.9555 236.744 34.2333 236.744 33.5111L239.922 6.49998C239.777 5.9222 240.211 5.34442 240.933 5.34442Z" fill="black"/>
<path d="M262.311 7.51107L276.467 8.23329C277.189 8.23329 277.623 7.51107 278.345 8.08885L278.2 16.0333C278.2 16.7555 277.623 17.3333 276.9 17.3333L269.967 16.6111C269.245 16.6111 268.811 17.1889 268.667 17.9111V18.0555C268.667 18.7777 269.1 19.5 269.823 19.5L274.3 19.9333C275.023 19.9333 275.456 20.6555 275.456 21.3777L275.167 25.4222C275.167 26.1444 274.589 26.7222 273.867 26.7222L269.245 26.2888C268.523 26.1444 267.945 26.8666 267.945 27.5888C267.945 28.3111 268.378 28.8888 268.956 29.0333L275.745 29.7555C276.323 29.7555 277.334 30.4777 277.189 31.2L277.478 37.9889C277.478 38.7111 276.9 39.4333 276.178 39.2888L258.556 37.7C257.834 37.7 257.4 36.9777 257.4 36.2555L260.867 9.09996C261.156 7.9444 261.589 7.36663 262.311 7.51107Z" fill="black"/>
<path d="M276.178 37.2666L281.378 10.9777C281.522 9.82218 282.822 9.38884 283.4 10.2555L291.056 20.0777C291.778 20.9444 292.933 20.5111 293.078 19.3555L293.944 11.2666C294.089 10.5444 294.667 9.96662 295.244 10.1111L300.444 10.9777C301.022 11.1222 301.456 11.7 301.456 12.5666L299 40.0111C298.856 41.1666 297.7 41.6 296.978 40.7333L289.467 32.2111C288.744 31.3444 287.589 31.7777 287.444 32.9333L286.578 38.8555C286.433 39.5777 285.856 40.0111 285.278 40.0111L276.9 38.8555C276.611 38.7111 276.178 37.9889 276.178 37.2666Z" fill="black"/>
<path d="M319.655 12.1333C322.544 12.5666 324.711 13.2888 326.733 15.3111C327.311 15.8888 327.6 17.7666 326.877 18.3444L320.377 23.5444C319.944 23.8333 319.222 23.6888 318.933 23.2555C318.5 22.6777 318.066 22.3889 317.344 22.2444H317.055C316.044 22.2444 315.033 22.8222 314.311 23.8333C313.3 25.2777 312.722 27.0111 312.433 29.0333V29.3222C312.289 31.4889 312.433 33.3666 313.011 34.8111C313.589 36.1111 314.311 36.8333 315.177 36.9777C316.766 37.2666 317.777 36.2555 318.355 33.9444H316.189L316.766 28.3111C316.766 27.5888 317.344 27.1555 317.777 27.1555L327.166 26.2888C327.889 26.2888 328.466 26.7222 328.466 27.5888C328.611 29.1777 328.466 30.6222 328.322 32.0666V32.5C327.744 37.1222 326.155 40.4444 323.7 42.7555C321.244 45.0666 318.066 45.7889 314.166 45.2111C310.411 44.4889 307.377 42.7555 305.066 39.7222C302.755 36.5444 301.889 32.6444 302.466 28.1666C303.044 23.1111 304.922 19.2111 307.955 16.7555C311.133 14.1555 315.9 11.5555 319.655 12.1333Z" fill="black"/>
<path d="M334.389 17.9111L348.4 19.9333C349.122 20.0777 349.555 20.6555 349.411 21.5222L348.689 27.4444C348.544 28.1666 347.966 28.7444 347.389 28.6L341.322 27.4444C340.744 27.3 340.022 27.8777 340.022 28.6V28.7444C339.878 29.4666 340.311 30.1888 341.033 30.3333L345.511 31.0555C346.089 31.2 346.666 31.9222 346.522 32.6444L346.089 36.5444C345.944 37.2666 345.366 37.8444 344.644 37.7L340.166 36.8333C339.444 36.6888 338.866 37.2666 338.722 37.9889C338.578 38.7111 339.011 39.4333 339.733 39.5777L346.378 40.8777C346.955 41.0222 347.389 41.6 347.389 42.3222L346.522 48.1C346.378 48.8222 345.8 49.4 345.222 49.2555L328.322 45.7888C327.6 45.6444 327.166 44.9222 327.311 44.2L333.089 18.7777C333.089 18.3444 333.666 17.9111 334.389 17.9111Z" fill="black"/>
<path d="M2.16667 20.5111C2.02222 19.9333 2.45556 19.3555 3.03334 19.0667C4.47779 18.6333 5.77777 18.3444 7.07777 18.0555C13.1444 16.9 17.6222 17.7667 20.8 20.5111C23.2555 22.6778 24.7 24.9889 25.1333 27.3C26.1444 32.7889 24.1222 37.1222 19.2111 40.0111C16.3222 41.7444 12.5667 43.3333 7.65556 44.6333C6.93334 44.7778 6.21111 44.3444 6.06666 43.6222L2.16667 20.5111ZM16.9 29.1778C16.6111 27.7333 15.8889 26.5778 14.7333 25.7111C14.0111 25.2778 13.4333 24.9889 12.8555 24.9889C12.7111 24.9889 12.5667 24.9889 12.4222 24.9889C12.1333 24.9889 11.8445 25.1333 11.7 25.2778L13.1445 33.3667C13.2889 34.3778 14.4444 34.6667 15.1667 33.9444C15.4556 33.6555 15.7445 33.2222 16.0333 32.9333C16.9 31.9222 17.1889 30.6222 16.9 29.1778Z" fill="white" stroke="black" stroke-miterlimit="10"/>
<path d="M49.5445 37.2667L46.3667 33.8C46.0779 33.5111 45.6445 33.3667 45.2112 33.3667L39.0001 34.5222C38.5667 34.6667 38.1334 34.9556 38.1334 35.3889L36.9779 39.4333C36.8334 40.0111 36.1112 40.4444 35.5334 40.3L29.1778 39C28.4556 38.8556 28.0223 38.1333 28.3112 37.4111L37.2667 13.1444C37.5556 12.2778 38.7112 12.1333 39.289 12.7111L57.3445 31.7778C57.9223 32.3556 57.7779 33.2222 57.0556 33.6556L51.1334 37.5556C50.7001 37.7 49.9779 37.7 49.5445 37.2667ZM39.7223 26.8667C39.4334 27.7333 40.3001 28.6 41.1667 28.4555C42.0334 28.3111 42.4667 27.1556 41.889 26.5778C41.1667 25.5667 40.0112 25.8556 39.7223 26.8667Z" fill="white" stroke="black" stroke-miterlimit="10"/>
<path d="M66.5888 10.2555L70.3444 33.9444C70.4888 34.6666 70.0555 35.2444 69.3333 35.3888L61.9666 36.6888C61.2444 36.8333 60.6666 36.2555 60.5221 35.5333L58.3555 11.5555C58.3555 10.9777 58.7888 10.3999 59.3666 10.2555L65.1444 9.38884C65.8666 9.24439 66.4444 9.67772 66.5888 10.2555Z" fill="white" stroke="black" stroke-miterlimit="10"/>
<path d="M71.7885 8.81108L78.5773 7.79998C79.2996 7.65553 79.8773 8.23331 80.0218 8.81108L81.7551 24.2666C81.8996 24.9889 82.4773 25.4222 83.0551 25.2778L89.6996 24.5555C90.2774 24.5555 90.8551 24.9889 90.9996 25.5666L91.8662 31.0555C92.0107 31.7778 91.5773 32.3555 90.8551 32.5L74.5329 34.6666C73.8107 34.8111 73.2329 34.2333 73.2329 33.6555L70.7773 10.1111C70.7773 9.53331 71.2107 8.95553 71.7885 8.81108Z" fill="white" stroke="black" stroke-miterlimit="10"/>
<path d="M119.456 6.2111L109.489 30.4778C109.345 30.9111 108.911 31.2 108.478 31.2L101.4 31.7778C100.534 31.9222 99.8113 30.9111 100.245 30.0444L103.278 23.1111C103.422 22.6778 103.422 22.2444 103.134 21.8111L92.3002 8.66666C91.7224 7.94443 92.1557 6.93332 93.0224 6.64443L100.534 5.05555C100.967 4.9111 101.545 5.19999 101.834 5.48888L105.878 11.2667C106.456 12.1333 107.611 11.8444 108.045 10.9778L110.211 4.9111C110.356 4.33333 110.934 4.04443 111.511 4.04443L119.022 4.62221C119.311 5.05555 119.745 5.63332 119.456 6.2111Z" fill="white" stroke="black" stroke-miterlimit="10"/>
<path d="M147.189 2.6C150.511 2.45556 153.4 3.32223 155.855 5.05556C156.433 5.48889 156.578 6.35556 156 6.93334L150.655 11.8444C150.222 12.2778 149.5 12.2778 149.067 11.8444C148.633 11.5556 148.055 11.2667 147.478 11.2667H147.333C146.9 11.2667 146.467 11.4111 146.033 11.8444C145.022 12.8556 144.444 14.1556 144.589 16.0333V16.1778C144.733 17.1889 145.022 18.0556 145.6 18.7778C146.033 19.3556 146.755 19.6445 147.478 19.9333C147.911 20.0778 148.489 20.0778 148.922 20.0778C149.933 20.0778 150.8 19.5 151.811 18.6333C152.244 18.2 152.967 18.2 153.4 18.4889L158.455 22.6778C159.033 23.1111 159.033 23.8333 158.6 24.4111C156.144 27.3 152.678 28.8889 148.344 29.0333C144.444 29.1778 141.267 28.1667 138.522 26C135.778 23.5444 134.333 20.3667 134.189 16.4667C134.044 12.4222 135.2 9.1 137.8 6.5C140.111 4.18889 143.289 2.74445 147.189 2.6Z" fill="white" stroke="black" stroke-miterlimit="10"/>
<path d="M173.622 27.4444L173.766 19.7889C173.766 19.0666 173.188 18.4889 172.466 18.6333L170.444 18.7778C169.866 18.7778 169.433 19.3555 169.433 19.9333L168.855 27.5889C168.855 28.1667 168.277 28.6 167.7 28.7444L162.355 29.1778C161.633 29.1778 161.055 28.7444 161.055 28.0222L160.044 4.76665C160.044 4.18888 160.477 3.6111 161.055 3.6111L168.711 2.74443C169.433 2.59999 170.011 3.32221 170.011 4.04443L169.577 10.1111C169.577 10.8333 170.155 11.4111 170.877 11.4111L172.755 11.2667C173.333 11.2667 173.766 10.6889 173.766 10.1111L173.911 3.75554C173.911 3.17776 174.488 2.59999 175.066 2.59999L182.722 2.3111C183.444 2.3111 184.022 2.88888 183.877 3.6111L181.711 27.4444C181.711 28.0222 181.133 28.4555 180.555 28.4555L174.922 28.7444C174.2 28.7444 173.622 28.1667 173.622 27.4444Z" fill="white" stroke="black" stroke-miterlimit="10"/>
<path d="M206.411 28.3111L203.811 24.2666C203.522 23.9778 203.233 23.6889 202.8 23.6889L196.444 23.8333C196.011 23.8333 195.577 24.1222 195.433 24.5555L193.555 28.3111C193.266 28.8889 192.689 29.1778 192.111 28.8889L186.044 26.4333C185.322 26.1444 185.033 25.4222 185.466 24.7L198.466 2.16664C198.9 1.44442 200.055 1.29997 200.489 2.16664L214.933 24.2666C215.366 24.8444 215.077 25.7111 214.355 26L207.855 28.7444C207.422 29.0333 206.7 28.7444 206.411 28.3111ZM198.466 16.3222C198.033 17.1889 198.611 18.2 199.477 18.0555H199.622C200.489 18.0555 201.066 17.0444 200.633 16.3222V16.1778C200.055 15.3111 198.9 15.4555 198.466 16.3222Z" fill="white" stroke="black" stroke-miterlimit="10"/>
<path d="M219.411 3.3222H226.344C227.066 3.3222 227.5 3.89998 227.5 4.62221L226.922 20.2222C226.922 20.8 227.355 21.3778 228.077 21.5222L234.866 21.8111C235.444 21.8111 236.022 22.3889 236.022 22.9667V28.6C236.022 29.3222 235.444 29.7555 234.866 29.7555L218.4 29.3222C217.678 29.3222 217.244 28.7444 217.244 28.0222L218.4 4.47776C218.255 3.89998 218.833 3.3222 219.411 3.3222Z" fill="white" stroke="black" stroke-miterlimit="10"/>
<path d="M240.934 4.47772L247.867 4.62217C248.589 4.62217 249.023 5.19994 249.023 5.92217L248.011 21.3777C248.011 21.9555 248.445 22.5333 249.167 22.6777L255.956 23.1111C256.534 23.1111 257.111 23.6888 257.111 24.2666V29.8999C257.111 30.6222 256.534 31.0555 255.811 31.0555L239.056 30.3333C238.334 30.3333 237.9 29.7555 237.9 29.0333L239.634 5.48883C239.778 4.91106 240.211 4.47772 240.934 4.47772Z" fill="white" stroke="black" stroke-miterlimit="10"/>
<path d="M262.311 6.35553L276.467 6.9333C277.189 6.9333 277.622 7.51108 277.622 8.23331L277.333 13.4333C277.333 14.1555 276.756 14.5889 276.033 14.5889L269.822 14.1555C269.1 14.1555 268.667 14.5889 268.522 15.3111V15.4555C268.522 16.1778 268.956 16.6111 269.678 16.7555L274.156 17.0444C274.878 17.0444 275.311 17.6222 275.311 18.3444L275.022 21.8111C275.022 22.5333 274.445 22.9666 273.722 22.9666L269.1 22.5333C268.378 22.5333 267.8 22.9666 267.8 23.6889C267.8 24.2666 268.233 24.8444 268.811 24.9889L275.6 25.5666C276.178 25.5666 276.756 26.1444 276.611 26.7222L276.467 32.5C276.467 33.2222 275.889 33.6555 275.167 33.6555L259.711 32.6444C258.989 32.6444 258.556 32.0666 258.556 31.3444L260.867 7.65553C261.156 6.78886 261.589 6.35553 262.311 6.35553Z" fill="white" stroke="black" stroke-miterlimit="10"/>
<path d="M278.2 32.4999L281.377 9.38884C281.522 8.37772 282.822 7.94439 283.4 8.81106L291.055 17.3333C291.777 18.0555 292.933 17.7666 293.077 16.7555L293.944 9.67773C294.088 8.9555 294.666 8.52217 295.244 8.66661L300.444 9.38884C301.022 9.53328 301.455 10.1111 301.455 10.6888L298.422 34.3777C298.277 35.3888 297.122 35.8222 296.4 35.1L289.466 27.7333C288.744 27.0111 287.588 27.4444 287.444 28.3111L286.577 33.3666C286.433 33.9444 285.855 34.3777 285.277 34.3777L278.922 33.7999C278.633 33.7999 278.055 33.2222 278.2 32.4999Z" fill="white" stroke="black" stroke-miterlimit="10"/>
<path d="M318.211 11.9889C321.1 12.4222 323.555 13.5778 325.577 15.3111C326.155 15.8889 326.155 16.7556 325.433 17.1889L320.377 20.3667C319.944 20.6556 319.222 20.5111 318.933 20.0778C318.5 19.6444 318.066 19.3556 317.344 19.2111H317.055C316.044 19.2111 315.033 19.6444 314.311 20.5111C313.3 21.6667 312.722 23.2556 312.433 24.9889V25.1333C312.289 27.0111 312.433 28.6 313.011 29.9C313.589 31.0555 314.311 31.6333 315.177 31.7778C316.766 32.0667 317.777 31.2 318.355 29.1778H316.189L316.766 24.2667C316.766 23.6889 317.344 23.2556 317.777 23.2556L327.166 22.3889C327.889 22.3889 328.466 22.8222 328.466 23.5444C328.611 24.8444 328.466 26.1444 328.322 27.4444V27.8778C327.744 31.7778 326.155 34.8111 323.7 36.6889C321.244 38.7111 318.066 39.2889 314.166 38.8556C310.411 38.2778 307.377 36.6889 305.066 34.0889C302.755 31.3444 301.889 28.0222 302.466 24.1222C303.044 19.6444 304.922 16.4667 307.955 14.3C311.133 12.1333 314.455 11.4111 318.211 11.9889Z" fill="white" stroke="black" stroke-miterlimit="10"/>
<path d="M334.389 15.4555L348.4 17.1889C349.122 17.3333 349.555 17.9111 349.411 18.4889L348.689 23.6889C348.544 24.4111 347.967 24.8444 347.389 24.7L341.322 23.8333C340.744 23.6889 340.022 24.1222 340.022 24.8444V24.9889C339.878 25.5666 340.311 26.2889 341.033 26.2889L345.511 27.0111C346.089 27.1555 346.667 27.7333 346.522 28.3111L346.089 31.7778C345.944 32.5 345.367 32.9333 344.644 32.7889L340.167 32.0666C339.444 31.9222 338.867 32.3555 338.722 33.0778C338.578 33.6555 339.011 34.2333 339.733 34.3778L346.378 35.5333C346.955 35.6778 347.389 36.2555 347.389 36.8333L346.811 42.6111C346.667 43.3333 346.089 43.7666 345.511 43.6222L330.2 41.4555C329.478 41.3111 329.044 40.7333 329.189 40.0111L333.233 16.6111C333.089 15.7444 333.667 15.3111 334.389 15.4555Z" fill="white" stroke="black" stroke-miterlimit="10"/>
</svg>
