<svg width="167" height="161" viewBox="0 0 167 161" fill="none" xmlns="http://www.w3.org/2000/svg">
<path d="M127.201 44.7678C126.515 34.9775 121.326 25.9204 112.834 21.09C109.961 19.4511 106.659 18.2435 102.97 17.8985C98.4674 17.5103 93.1066 17.3809 87.5742 17.5103C84.4006 17.5966 81.1841 17.5966 78.0105 17.5103C72.4782 17.3809 67.0745 17.5103 62.6143 17.8985C58.9689 18.2435 55.6667 19.4511 52.7504 21.09C44.2589 25.9204 39.0267 34.9775 38.3834 44.7678C38.0403 49.5551 37.7401 54.7736 37.7401 57.232C37.7401 62.3212 41.943 72.4133 48.7191 77.1575C55.538 81.9017 69.133 79.2708 81.6988 80.5647C82.0419 80.6078 82.4278 80.651 82.8138 80.6941C83.1998 80.651 83.5429 80.6078 83.9289 80.5647C96.4946 79.2277 110.09 81.9017 116.909 77.1575C123.728 72.4133 127.888 62.3212 127.888 57.232C127.845 54.7736 127.544 49.5551 127.201 44.7678Z" fill="black"/>
<path d="M82.7709 73.0602C101.08 73.0602 115.922 65.5488 115.922 56.2831C115.922 47.0174 101.08 39.506 82.7709 39.506C64.462 39.506 49.6196 47.0174 49.6196 56.2831C49.6196 65.5488 64.462 73.0602 82.7709 73.0602Z" fill="white"/>
<path d="M96.2802 59.216C96.2802 59.216 94.7362 59.6472 91.9915 60.0354C86.6736 60.8117 81.2699 60.8117 75.952 60.0354C73.2072 59.6472 71.6633 59.216 71.6633 59.216C71.6633 59.216 70.7627 59.0003 71.1058 59.906C73.4217 63.2701 83.9717 63.3995 83.9717 63.3995C83.9717 63.3995 94.5218 63.2701 96.8377 59.906C97.1808 58.9572 96.2802 59.216 96.2802 59.216Z" fill="black"/>
<path d="M61.9281 22.082C55.7095 22.5996 49.4052 21.9526 43.1867 21.9526C36.9681 21.9526 30.4923 22.5996 24.917 25.4461C22.2152 26.8262 19.642 28.8101 18.3554 31.5704C17.1975 34.0287 17.1546 36.789 17.1117 39.5061C17.1117 39.9374 17.1117 40.4118 17.4119 40.7568C17.7121 41.1018 18.2267 41.1881 18.6985 41.1881C32.2077 42.1369 46.0601 37.0046 55.7524 27.5163L61.9281 22.082Z" fill="black"/>
<path d="M105.458 22.082C111.677 22.5996 117.981 21.9526 124.199 21.9526C130.461 21.9526 136.894 22.5996 142.469 25.4461C145.171 26.8262 147.744 28.8101 149.031 31.5704C150.189 34.0287 150.231 36.789 150.274 39.5061C150.274 39.9374 150.274 40.4118 149.974 40.7568C149.674 41.1018 149.159 41.1881 148.688 41.1881C135.178 42.1369 121.326 37.0046 111.634 27.5163L105.458 22.082Z" fill="black"/>
<path d="M34.9096 106.054C34.5666 108.469 34.4808 111.1 35.6387 113.256C36.7966 115.413 39.5414 116.879 41.7286 115.844C43.6585 114.938 44.3876 112.653 44.9022 110.582C45.9315 106.485 47.7327 97.3418 48.376 93.1583L41.5999 86.3008C39.327 91.3469 35.6387 100.62 34.9096 106.054Z" fill="black"/>
<path d="M50.6061 89.5354L52.1071 75.0441C51.0779 75.0441 50.0915 75.0441 49.0622 75.0441C48.3331 75.0441 46.7892 74.7422 46.1888 75.1735C45.5884 75.6479 45.6742 76.8555 45.5455 77.5456C45.5026 77.7613 45.4597 77.9338 45.374 78.1063C44.8164 80.0902 43.7872 81.9448 42.8437 83.7993C41.7286 85.9557 40.9995 87.3359 39.9274 90.3549L47.3896 98.1181C47.3896 97.9887 47.4325 97.8593 47.4754 97.6868C47.9043 94.754 48.4618 91.4762 50.6061 89.5354Z" fill="black"/>
<path d="M143.327 72.9309C145.342 71.5076 147.272 69.8256 148.087 67.4967C148.902 65.1677 148.087 62.1487 145.814 61.243C143.841 60.4667 141.654 61.4586 139.81 62.4937C136.122 64.5208 128.23 69.3943 124.757 71.7664L124.414 81.4704C129.603 79.659 138.823 76.0793 143.327 72.9309Z" fill="black"/>
<path d="M120.554 72.6289L108.975 81.3841C109.661 82.1173 110.347 82.8936 111.033 83.6268C111.505 84.1443 112.32 85.4813 113.092 85.6539C113.821 85.7832 114.678 84.8775 115.279 84.5325C115.45 84.4462 115.622 84.36 115.794 84.2306C117.638 83.2818 119.653 82.7642 121.669 82.2467C123.985 81.5997 125.486 81.2116 128.445 79.9177L129.045 69.1355C128.917 69.2218 128.788 69.2649 128.702 69.3511C126.215 71.0332 123.47 72.8446 120.554 72.6289Z" fill="black"/>
<path d="M116.48 75.1304C116.008 75.0873 115.579 75.0873 115.107 75.0873C97.9098 75.0873 80.7124 75.0442 63.5149 75.0442C59.698 75.0442 55.924 75.0442 52.1071 75.0442L50.606 89.5355C50.6489 89.4924 50.6918 89.4924 50.606 89.5355C49.9199 104.242 50.0485 118.518 50.0485 133.268C50.0485 134.778 50.0914 136.373 50.7347 137.71C52.1928 140.643 55.9668 141.376 59.2262 141.549C63.4291 141.765 67.6749 141.721 71.8777 141.333C73.4216 141.204 75.0084 140.988 76.2093 140.039C78.4394 138.271 78.3536 134.95 78.2249 132.147C78.1392 129.3 78.6538 125.85 81.2699 124.815C83.886 123.78 86.8022 126.109 87.7029 128.826C88.6035 131.5 88.1746 134.476 88.389 137.279C88.4748 138.659 88.7321 140.083 89.6327 141.118C90.8764 142.584 92.9779 142.886 94.8649 143.015C99.9684 143.403 105.072 143.274 110.132 142.584C111.848 142.368 113.735 141.98 114.807 140.6C115.794 139.349 115.879 137.624 115.879 136.028C116.051 123.09 116.222 110.108 115.622 97.1693C115.45 93.6327 115.15 90.0962 114.893 86.6027C114.979 86.6459 115.064 86.7321 115.193 86.8184C115.107 85.9989 115.022 84.4894 114.807 81.5566C114.636 78.5376 115.536 76.4674 116.48 75.1304Z" fill="black"/>
<path d="M50.6061 89.4923C50.6919 89.4492 50.649 89.4923 50.6061 89.4923V89.4923Z" fill="black"/>
<path d="M50.606 89.5355C50.5632 89.5355 50.5203 89.5787 50.606 89.5355V89.5355Z" fill="black"/>
<path d="M118.367 73.2759C118.367 73.2759 117.423 73.8366 116.48 75.1304C116.951 75.1735 117.466 75.2167 117.895 75.3461L118.367 73.2759Z" fill="black"/>
<path d="M63.9438 58.0945C65.815 58.0945 67.3319 56.5691 67.3319 54.6873C67.3319 52.8056 65.815 51.2802 63.9438 51.2802C62.0727 51.2802 60.5558 52.8056 60.5558 54.6873C60.5558 56.5691 62.0727 58.0945 63.9438 58.0945Z" fill="black"/>
<path d="M103.785 58.0945C105.656 58.0945 107.173 56.5691 107.173 54.6873C107.173 52.8056 105.656 51.2802 103.785 51.2802C101.914 51.2802 100.397 52.8056 100.397 54.6873C100.397 56.5691 101.914 58.0945 103.785 58.0945Z" fill="black"/>
<path d="M83.9719 57.8789C85.6062 57.8789 86.931 57.1645 86.931 56.2831C86.931 55.4018 85.6062 54.6874 83.9719 54.6874C82.3376 54.6874 81.0127 55.4018 81.0127 56.2831C81.0127 57.1645 82.3376 57.8789 83.9719 57.8789Z" fill="black"/>
</svg>
