<svg width="226" height="49" viewBox="0 0 226 49" fill="none" xmlns="http://www.w3.org/2000/svg">
<path d="M14.9 47.4L5.89999 48.5C5.59999 48.6 5.3 48.3 5.3 47.9L1 12.3C1 12 1.09999 11.6 1.39999 11.6C5.19999 10.4 9.3 9.49999 13.5 8.89999C16.6 8.49999 19.3 8.79999 21.4 10.1C23.3 11.2 24.7 13.1 25.4 15.9C25.6 16.6 25.8 17.4 25.9 18.4C26.1 20 25.9 21.6 25.4 23.1C24.7 25.3 23.5 27.1 21.8 28.6C21.5 28.8 21.5 29.3 21.7 29.6L30 31.9C30 31.9 30.2 39.7 30 40L22.1 46.6C21.9 46.8 21.6 46.8 21.4 46.5L14.5 37.3C14.2 36.8 14.7 37.5 14.7 38.1L15.3 46.7C15.3 47.1 15.1 47.4 14.9 47.4ZM16.6 23.5C17.1 22.8 17.2 21.7 17.1 20.2C17 18.7 16.6 17.7 16 17.2C15.4 16.6 14.7 16.4 14 16.5C13.2 16.6 12.6 17 12.2 17.8C11.7 18.5 11.6 19.6 11.7 21.1C11.8 22.6 12.2 23.6 12.8 24.1C13.4 24.7 14.1 24.9 14.8 24.8C15.5 24.7 16.1 24.3 16.6 23.5Z" fill="black"/>
<path d="M30 8L47.8 5C48.1 5 48.4 5.2 48.4 5.6L49.4 15C49.4 15.4 49.2 15.7 48.9 15.7L40.1 16.9C39.8 16.9 39.6 17.3 39.6 17.6L39.8 19.8C39.8 20.2 40.1 20.4 40.4 20.4L47.3 19.5C47.6 19.5 47.9 19.7 47.9 20.1L48.5 27C48.5 27.4 48.3 27.7 48 27.7L41 28.4C40.7 28.4 40.5 28.8 40.5 29.1L40.7 31.1C40.7 31.5 41 31.7 41.3 31.7L52.2 32.2C52.5 32.2 52.7 32.4 52.8 32.8L52.5 41.5C52.5 41.9 52.3 42.2 52 42.3L32.6 45C32.3 45 32 44.8 32 44.4L29.5 8.6C29.5 8.4 29.7 8.1 30 8Z" fill="black"/>
<path d="M69.9001 16.5L75.8001 2.39996C76.0001 1.89996 76.6001 1.89996 76.8001 2.39996L89.4001 31.3C89.4001 31.3 89.3001 38 88.5001 39.1L80.9001 40.7C80.7001 40.8 80.4001 40.6 80.3001 40.3L76.2001 28.7C76.0001 28.2 75.4001 28.2 75.2001 28.7L71.1001 38.6C70.9001 39 70.4001 39.1 70.2001 38.7L65.0001 29.5C64.7001 29 64.1001 29.2 64.0001 29.7L61.9001 42.4C61.8001 42.8 61.5001 43 61.3001 42.9L50.9001 40.3C50.6001 40.2 50.4001 39.8 50.5001 39.5L60.9001 3.39996C61.0001 2.79996 61.6001 2.69996 61.9001 3.19996L69.0001 16.4C69.2001 16.9 69.7001 16.9 69.9001 16.5Z" fill="black"/>
<path d="M90.6998 3.29999L108.6 1.79999C108.9 1.79999 109.2 2.09999 109.2 2.39999L109.7 11.9C109.7 12.3 109.5 12.6 109.2 12.6L100.4 13C100.1 13 99.8998 13.3 99.8998 13.7L99.9998 15.9C99.9998 16.3 100.3 16.5 100.6 16.5L107.5 16.1C107.8 16.1 108 16.4 108.1 16.7L108.4 23.7C108.4 24.1 108.2 24.4 107.9 24.4L100.9 24.6C100.6 24.6 100.4 24.9 100.4 25.3L100.5 27.3C100.5 27.7 100.8 27.9 101 27.9L110.4 27.7C110.7 27.7 110.9 28 110.9 28.3L112.2 31.4L111.6 38.5C111.6 38.9 111.4 39.2 111.1 39.2L90.9998 40.6C90.6998 40.6 90.3998 40.3 90.3998 39.9V3.59999C90.1998 3.59999 90.3998 3.29999 90.6998 3.29999Z" fill="black"/>
<path d="M130.1 15L136.7 1.39998C136.9 0.899979 137.5 0.999978 137.7 1.49998L150.6 38.1C150.7 38.5 150.5 38.9 150.1 39L139.6 40.1C139.4 40.1 139.1 40 139 39.7L135.5 27.8C135.3 27.3 134.8 27.2 134.5 27.7L129.9 37.3C129.7 37.7 129.2 37.7 129 37.3L124.3 27.7C124.1 27.2 123.4 27.3 123.3 27.9L120.6 40.4C120.5 40.8 120.2 41 119.9 40.9L109.3 37.8C109 37.7 108.8 37.3 108.9 36.9L121.7 1.39998C121.8 0.899979 122.4 0.799977 122.7 1.29998L129.1 15.1C129.4 15.4 129.9 15.4 130.1 15Z" fill="black"/>
<path d="M151.3 3.19995C151.3 2.79995 151.6 2.49995 151.9 2.59995L166.3 3.99995C168.6 4.09995 170.6 5.09995 172.3 6.89995C173.9 8.59995 174.7 10.7 174.6 13.2C174.5 15.2 173.8 16.9 172.5 18.2C171.6 19.1 170.6 19.7999 169.4 20.1999C168.9 20.3999 168.9 21.1 169.3 21.4C170.5 22.1 174.2 22.5999 174.3 24.1999C174.4 26.0999 174 28.6999 173.9 31.1999C173.7 36.0999 170.4 39 163.9 40C161.9 40.2999 159.3 40.5 156 40.5C156 40.5 156 40.5 155.9 40.5C153.7 40.2999 150 40 149 39.9C148.2 40 151.3 3.19995 151.3 3.19995ZM164.8 28.8C164.8 27.8 164.6 27 164 26.3C163.4 25.6 162.8 25.2999 162 25.1999H161.9C161 25.0999 160.4 25.4999 160.2 26.1999C160.2 26.2999 160.1 27.1999 160.1 28.9C160.1 30.1 160.1 30.7999 160.2 31.0999C160.4 31.5999 160.8 31.7999 161.6 31.9H161.7C162.4 31.9 163.1 31.6999 163.7 31.0999C164.5 30.5999 164.8 29.8 164.8 28.8ZM165.3 15.7C165.4 14.5999 165 13.4 164.2 12.7C163.7 12.2 163.1 12 162.4 11.9H162.3C161.4 11.9 160.9 12.2 160.7 12.9L160.6 15.4C160.5 16.7 160.6 17.4999 160.7 17.7999C160.9 18.2999 161.3 18.5999 162.1 18.5999H162.4C163.2 18.5999 163.8 18.2999 164.4 17.7999C165 17.2999 165.3 16.5999 165.3 15.7Z" fill="black"/>
<path d="M178.9 5.39996L196.8 5.99996C197.1 5.99996 197.3 6.29996 197.3 6.69996L197 16.2C197 16.6 196.7 16.9 196.4 16.8L187.6 16.2C187.3 16.2 187 16.5 187 16.8L186.9 19C186.9 19.4 187.1 19.7 187.4 19.7L194.3 20.2C194.6 20.2 194.8 20.5 194.8 20.9L194.5 27.9C194.5 28.3 194.2 28.6 193.9 28.5L186.9 27.8C186.6 27.8 186.3 28.1 186.3 28.4L186.2 30.5C186.2 30.9 186.4 31.2 186.7 31.2L196.1 32.1C196.4 32.1 196.6 32.4 196.6 32.8L196.4 43.1C196.4 43.5 196.1 43.8 195.8 43.8L175.5 42C175.2 42 175 41.7 175 41.3L178.3 5.99996C178.3 5.59996 178.6 5.39996 178.9 5.39996Z" fill="black"/>
<path d="M207.9 45.3L198.7 44.1C198.4 44.1 198.2 43.8 198.2 43.4L201.6 7.89997C201.6 7.59997 201.8 7.29996 202.1 7.29996C206.1 7.19996 210.2 7.39997 214.4 7.89997C217.5 8.29997 220.1 9.39996 221.9 11.2C223.6 12.8 224.6 15.1 224.8 18C224.9 18.7 224.9 19.6 224.8 20.5C224.7 22.1 224.2 23.6 223.5 24.9C222.5 26.8 221 28.3 219 29.3C218.7 29.5 218.6 29.9 218.7 30.3L225 33.9V41.5C225 41.8 225 42.3 224.8 42.5L216 47.1C215.7 47.2 215.5 47.1 215.3 46.8L210.2 36C209.9 35.5 209.3 35.6 209.2 36.2L208.3 44.7C208.5 45.1 208.2 45.3 207.9 45.3ZM214.9 23.1C215.5 22.5 215.8 21.5 216 20.1C216.1 18.6 215.9 17.6 215.5 16.8C215 16.1 214.4 15.7 213.6 15.6C212.8 15.5 212.2 15.7 211.6 16.3C211 16.9 210.7 17.9 210.5 19.3C210.4 20.8 210.5 21.8 211 22.6C211.5 23.3 212.1 23.7 212.9 23.8C213.7 23.9 214.3 23.7 214.9 23.1Z" fill="black"/>
<path d="M13.7 38.4L5.8 39.6C5.5 39.6 5.2 39.4 5.2 39.1L1 10.3C1 10 1.09999 9.80002 1.39999 9.70002C5.19999 8.70002 9.3 8.00002 13.5 7.50002C16.6 7.10002 19.3 7.50002 21.4 8.50002C23.3 9.40002 24.7 11 25.4 13.2C25.6 13.8 25.8 14.4 25.9 15.2C26.1 16.5 25.9 17.8 25.4 19C24.7 20.7 23.5 22.2 21.8 23.5C21.5 23.7 21.5 24.1 21.7 24.3L29.4 31.7C29.6 31.9 29.6 32.3 29.4 32.5L22.1 38C21.9 38.2 21.6 38.1 21.4 37.9L14.5 30.5C14.2 30.1 13.5 30.4 13.6 30.9L14.2 37.8C14.2 38.1 14 38.4 13.7 38.4ZM16.6 19.3C17.1 18.7 17.2 17.8 17.1 16.7C17 15.5 16.6 14.7 16 14.2C15.4 13.7 14.7 13.5 14 13.6C13.2 13.7 12.6 14 12.2 14.6C11.7 15.2 11.6 16.1 11.7 17.2C11.8 18.4 12.2 19.2 12.8 19.7C13.4 20.2 14.1 20.4 14.8 20.3C15.5 20.3 16.1 19.9 16.6 19.3Z" fill="white" stroke="black" stroke-miterlimit="10"/>
<path d="M30 6.80002L47.8 4.40002C48.1 4.40002 48.4 4.60002 48.4 4.90002L49.4 12.5C49.4 12.8 49.2 13.1 48.9 13.1L40.1 14C39.8 14 39.6 14.3 39.6 14.6L39.8 16.4C39.8 16.7 40.1 16.9 40.4 16.9L47.3 16.1C47.6 16.1 47.9 16.3 47.9 16.6L48.5 22.2C48.5 22.5 48.3 22.8 48 22.8L41 23.4C40.7 23.4 40.5 23.7 40.5 24L40.7 25.6C40.7 25.9 41 26.1 41.3 26.1L50.7 25.3C51 25.3 51.2 25.5 51.3 25.8L52.5 34.1C52.5 34.4 52.3 34.7 52 34.7L32.6 36.9C32.3 36.9 32 36.7 32 36.4L29.5 7.40002C29.5 7.10002 29.7 6.80002 30 6.80002Z" fill="white" stroke="black" stroke-miterlimit="10"/>
<path d="M69.9002 13.6L75.8002 2.20002C76.0002 1.80002 76.6002 1.80002 76.8002 2.20002L88.9002 31.2C89.0002 31.5 88.8002 31.9 88.5002 31.9L80.9002 33.2C80.7002 33.2 80.4002 33.1 80.3002 32.9L76.2002 23.5C76.0002 23.1 75.4002 23.1 75.2002 23.5L71.1002 31.5C70.9002 31.9 70.4002 31.9 70.2002 31.6L65.0002 24.1C64.7002 23.7 64.1002 23.8 64.0002 24.3L61.9002 34.6C61.8002 34.9 61.5002 35.1 61.3002 35L53.5002 33.2C53.2002 33.1 53.0002 32.8 53.1002 32.5L61.0002 3.00002C61.1002 2.60002 61.7002 2.50002 62.0002 2.80002L69.1002 13.5C69.2002 14 69.7002 14 69.9002 13.6Z" fill="white" stroke="black" stroke-miterlimit="10"/>
<path d="M90.6998 3.00005L108.6 1.80005C108.9 1.80005 109.2 2.00005 109.2 2.30005L109.7 10C109.7 10.3 109.5 10.6 109.2 10.6L100.4 10.9001C100.1 10.9001 99.8998 11.2 99.8998 11.5L99.9998 13.3C99.9998 13.6 100.3 13.8 100.6 13.8L107.5 13.5C107.8 13.5 108 13.7 108.1 14L108.4 19.6C108.4 19.9 108.2 20.2 107.9 20.2L100.9 20.3001C100.6 20.3001 100.4 20.6001 100.4 20.9001L100.5 22.6C100.5 22.9 100.8 23.1 101 23.1L110.4 22.9001C110.7 22.9001 110.9 23.1001 110.9 23.4001L111.6 31.7C111.6 32 111.4 32.3001 111.1 32.3001L91.5999 33.2C91.2999 33.2 90.9998 33 90.9998 32.7L90.3998 3.60005C90.1998 3.20005 90.3998 3.00005 90.6998 3.00005Z" fill="white" stroke="black" stroke-miterlimit="10"/>
<path d="M130.1 12.4L136.7 1.40003C136.9 1.00003 137.5 1.10002 137.7 1.50002L147.8 31.2C147.9 31.5 147.7 31.9 147.3 31.9L139.6 32.7C139.4 32.7 139.1 32.6 139 32.3L135.5 22.7C135.3 22.3 134.8 22.2 134.5 22.6L129.9 30.4C129.7 30.7 129.2 30.7 129 30.4L124.3 22.6C124.1 22.2 123.4 22.3 123.3 22.7L120.7 33C120.6 33.3 120.3 33.5 120 33.4L112.3 31.1C112 31 111.8 30.7 111.9 30.4L121.8 1.50002C121.9 1.10002 122.5 1.00003 122.8 1.40003L129.2 12.5C129.4 12.8 129.9 12.8 130.1 12.4Z" fill="white" stroke="black" stroke-miterlimit="10"/>
<path d="M151.3 2.90002C151.3 2.60002 151.6 2.40002 151.9 2.40002L166.3 3.60002C168.6 3.70002 170.6 4.50002 172.3 5.90002C173.9 7.30002 174.7 9.00002 174.6 11C174.5 12.6 173.8 14 172.5 15.1C171.6 15.8 170.6 16.4 169.4 16.7C168.9 16.8 168.9 17.5 169.3 17.7C170.5 18.3 171.5 19.2 172.3 20.3C173.5 21.9 174 23.7 173.9 25.7C173.7 29.7 170.4 32 163.9 32.9C161.9 33.2 159.3 33.3 156 33.3C156 33.3 156 33.3 155.9 33.3C153.7 33.1 152.1 33 151 33C150.3 33 149.8 33 149.6 33L151.3 2.90002ZM164.8 23.6C164.8 22.8 164.6 22.1 164 21.6C163.4 21.1 162.8 20.8 162 20.7H161.9C161 20.7 160.4 20.9 160.2 21.5C160.2 21.5 160.1 22.3 160.1 23.7C160.1 24.7 160.1 25.3 160.2 25.5C160.4 25.9 160.8 26.1 161.6 26.1H161.7C162.4 26.1 163.1 25.9 163.7 25.5C164.5 25 164.8 24.4 164.8 23.6ZM165.3 13C165.4 12.1 165 11.1 164.2 10.6C163.7 10.2 163.1 10 162.4 10H162.3C161.4 10 160.9 10.3 160.7 10.8L160.6 12.8C160.5 13.9 160.6 14.5 160.7 14.7C160.9 15.1 161.3 15.3 162.1 15.4H162.4C163.2 15.4 163.8 15.2 164.4 14.7C165 14.3 165.3 13.7 165.3 13Z" fill="white" stroke="black" stroke-miterlimit="10"/>
<path d="M178.9 4.70005L196.8 5.20005C197.1 5.20005 197.3 5.50004 197.3 5.80004L197 13.5C197 13.8 196.7 14 196.4 14L187.6 13.5C187.3 13.5 187 13.7 187 14L186.9 15.8C186.9 16.1 187.1 16.3 187.4 16.4L194.3 16.8C194.6 16.8 194.8 17.1 194.8 17.4L194.5 23C194.5 23.3 194.2 23.5 193.9 23.5L186.9 23C186.6 23 186.3 23.2 186.3 23.5L186.2 25.2C186.2 25.5 186.4 25.7 186.7 25.8L196.1 26.5C196.4 26.5 196.6 26.8 196.6 27L196.4 35.4C196.4 35.7 196.1 35.9 195.8 35.9L176.3 34.9C176 34.9 175.8 34.6 175.8 34.3L178.1 5.30004C178.3 4.90004 178.6 4.60005 178.9 4.70005Z" fill="white" stroke="black" stroke-miterlimit="10"/>
<path d="M207.9 36.9L200 36.3C199.7 36.3 199.5 36 199.5 35.7L201.7 6.60003C201.7 6.30003 201.9 6.10003 202.2 6.10003C206.2 6.00003 210.3 6.10003 214.5 6.60003C217.6 6.90003 220.2 7.80003 222 9.30003C223.7 10.6 224.7 12.4 224.9 14.8C225 15.4 225 16.1 224.9 16.8C224.8 18.1 224.3 19.3 223.6 20.4C222.6 22 221.1 23.1 219.1 24C218.8 24.1 218.7 24.5 218.8 24.8L224.7 33.7C224.9 34 224.8 34.3 224.5 34.5L216.2 38.3C215.9 38.4 215.7 38.3 215.5 38.1L210.4 29.3C210.1 28.9 209.5 29 209.4 29.5L208.5 36.4C208.5 36.8 208.2 37 207.9 36.9ZM214.9 19C215.5 18.5 215.8 17.7 216 16.5C216.1 15.3 215.9 14.4 215.5 13.9C215 13.3 214.4 13 213.6 12.9C212.8 12.8 212.2 13 211.6 13.5C211 14 210.7 14.8 210.5 16C210.4 17.2 210.5 18.1 211 18.6C211.5 19.2 212.1 19.5 212.9 19.6C213.7 19.6 214.3 19.4 214.9 19Z" fill="white" stroke="black" stroke-miterlimit="10"/>
</svg>
