<svg width="180" height="62" viewBox="0 0 180 62" fill="none" xmlns="http://www.w3.org/2000/svg">
<g clip-path="url(#clip0)">
<path d="M32.485 19.454L39.9406 3.72072C40.7927 1.80721 43.1359 2.12613 43.7749 4.14594L63.053 54.7476C63.4791 56.3422 62.627 58.0431 61.3489 58.2557L47.6092 60.2755C46.6507 60.3818 45.7986 59.744 45.3726 58.5746L41.1122 44.5422C40.4732 42.5224 38.2365 42.3098 37.3844 44.117L32.8045 53.7908C32.059 55.4917 30.0353 55.4917 29.1832 53.8971L24.4968 44.5422C23.5382 42.6287 21.0885 43.0539 20.6625 45.2863L17.6803 59.5313C17.3607 60.9133 16.1891 61.7638 15.124 61.3385L1.91695 57.7241C0.74535 57.2989 0.106293 55.8106 0.532329 54.4287L17.6803 4.35855C18.2128 2.23243 20.556 1.91351 21.5146 3.82702L28.9702 19.5603C29.7158 21.2612 31.6329 21.1549 32.485 19.454Z" fill="black"/>
<path d="M64.1179 3.18919L89.041 1.70091C90.2126 1.5946 91.1712 2.76397 91.2777 4.14595L92.4493 15.4144C92.4493 16.9027 91.5972 18.072 90.4256 18.072L78.7096 18.6036C77.538 18.6036 76.5795 19.8792 76.686 21.2612V21.4738C76.686 22.8558 77.6446 24.0252 78.8162 24.0252L86.9108 23.8125C88.0824 23.8125 89.041 24.8756 89.041 26.3639L89.1475 33.9116C89.1475 35.3999 88.1889 36.5693 87.0173 36.5693H78.9227C77.7511 36.5693 76.7925 37.8449 76.7925 39.3332C76.7925 40.7152 77.7511 41.7783 78.9227 41.7783H90.9582C92.0232 41.7783 94.0469 42.8413 94.0469 44.2233L94.686 56.98C94.7925 58.4683 93.8339 59.744 92.6623 59.744L63.3724 60.807C62.2008 60.807 61.2422 59.6377 61.2422 58.2557L62.2008 5.95314C62.0943 4.46486 63.0528 3.2955 64.1179 3.18919Z" fill="black"/>
<path d="M95.7515 57.0863L97.7751 5.95315C97.7751 3.72072 99.9053 2.55136 101.29 4.03964L116.521 20.6234C117.905 22.1117 119.929 20.9423 120.036 18.7099L120.142 3.18919C120.142 1.70091 121.101 0.531543 122.272 0.637849L131.538 0.95677C132.71 0.95677 133.562 2.12614 133.562 3.61442L133.988 56.3422C133.988 58.5746 131.858 59.744 130.58 58.362L116.095 43.6918C114.71 42.3098 112.686 43.3729 112.686 45.6053L112.367 56.8737C112.367 58.2557 111.408 59.3187 110.343 59.3187L97.9882 59.744C96.7101 59.744 95.7515 58.5746 95.7515 57.0863Z" fill="black"/>
<path d="M137.716 33.0612C137.716 31.5729 137.609 30.1909 137.609 28.7026C137.609 20.3045 138.355 12.0126 139.953 4.03965C140.166 2.87028 141.018 2.01984 141.976 2.01984L153.053 2.12614C154.225 2.12614 155.183 3.40181 155.077 4.89009C154.97 6.27207 154.864 8.29188 154.757 10.7369C154.544 15.627 154.225 19.8792 154.118 23.281C153.905 26.5765 153.905 29.5531 153.905 32.1044C153.905 37.9512 154.331 41.672 155.29 43.2665C155.716 44.0107 156.568 44.4359 157.74 44.4359H157.953C159.231 44.3296 160.189 43.9044 160.615 43.0539C162 40.5026 162.852 34.8684 162.958 26.1513C163.065 18.391 163.172 11.2685 163.172 4.78379C163.172 3.40181 164.13 2.23245 165.195 2.23245L176.272 2.12614C177.337 2.12614 178.189 3.08289 178.402 4.35856C179.148 9.88647 179.467 15.2018 179.467 20.4108C179.467 24.9819 179.148 29.7657 178.615 34.7621C177.018 49.8575 172.97 58.2557 166.686 59.744C163.704 60.4881 160.402 60.807 156.674 60.807H156.248C151.669 60.807 148.26 60.1692 146.024 58.9998C141.018 56.1296 138.142 47.5188 137.716 33.0612Z" fill="black"/>
<path d="M32.4851 15.8396L39.9407 3.18917C40.7928 1.70088 43.136 1.91349 43.775 3.50808L58.3667 44.6485C58.7928 45.9242 57.9407 47.3061 56.6626 47.4124L47.5028 48.4755C46.5443 48.5818 45.6922 48.0503 45.2661 47.0935L41.0058 35.8251C40.3667 34.2305 38.1301 34.0179 37.278 35.5062L32.6981 43.3728C31.9525 44.7548 29.9289 44.7548 29.0768 43.4791L24.3904 35.9314C23.4318 34.3368 20.9821 34.762 20.5561 36.4629L17.6804 47.8377C17.3608 49.007 16.1892 49.6449 15.1241 49.326L5.85787 46.6683C4.68627 46.3494 4.04721 45.18 4.47325 44.0107L17.6804 3.50808C18.2129 1.80719 20.5561 1.48827 21.5147 3.08286L28.9703 15.7333C29.7159 17.2216 31.633 17.2216 32.4851 15.8396Z" fill="white" stroke="black" stroke-miterlimit="10"/>
<path d="M64.1181 2.65764L89.0412 1.48828C90.2128 1.38197 91.1714 2.33872 91.2779 3.50809L91.704 12.7567C91.704 13.9261 90.8519 14.8828 89.6803 14.9891L78.7099 15.2017C77.5383 15.2017 76.5797 16.1585 76.6862 17.3279V17.5405C76.6862 18.7098 77.6448 19.5603 78.8164 19.5603L86.9111 19.3477C88.0827 19.3477 89.0412 20.1981 89.0412 21.3675L89.1478 27.4269C89.1478 28.5963 88.1892 29.5531 87.0176 29.5531H78.9229C77.7513 29.5531 76.7927 30.5098 76.7927 31.7855C76.7927 32.9548 77.7513 33.8053 78.9229 33.8053H90.9584C92.0235 33.8053 92.9821 34.6557 93.0886 35.8251L93.7276 46.1368C93.8341 47.3061 92.8756 48.3692 91.704 48.3692L64.3312 48.9007C63.1596 48.9007 62.201 47.944 62.201 46.7746V4.78376C62.0945 3.7207 63.0531 2.76395 64.1181 2.65764Z" fill="white" stroke="black" stroke-miterlimit="10"/>
<path d="M96.8164 46.0305L97.6685 4.89007C97.6685 3.08286 99.7987 2.23242 101.183 3.40178L116.414 16.7963C117.799 17.9657 119.822 17.0089 119.929 15.2017L120.035 2.76395C120.035 1.59458 120.994 0.63783 122.166 0.744136L131.432 1.06305C132.603 1.06305 133.455 2.01981 133.455 3.18917L133.242 45.4989C133.242 47.3061 131.112 48.2629 129.834 47.0935L115.988 35.5062C114.603 34.3368 112.58 35.2936 112.58 36.9945L112.26 46.0305C112.26 47.0935 111.302 48.0503 110.237 48.0503L99.0531 48.1566C97.775 48.2629 96.8164 47.1998 96.8164 46.0305Z" fill="white" stroke="black" stroke-miterlimit="10"/>
<path d="M137.716 26.6828C137.716 25.5134 137.609 24.3441 137.609 23.1747C137.609 16.3711 138.355 9.78013 139.953 3.29547C140.166 2.33871 141.018 1.70088 141.976 1.70088L153.053 1.80719C154.225 1.80719 155.183 2.87024 155.077 4.03961C154.97 5.20898 154.864 6.80357 154.757 8.71707C154.544 12.6504 154.225 16.0522 154.118 18.8161C153.905 21.4738 153.905 23.9188 153.905 25.9386C153.905 30.6161 154.331 33.5927 155.29 34.8683C155.716 35.5062 156.568 35.8251 157.74 35.8251H157.953C159.231 35.7188 160.189 35.3999 160.615 34.6557C162 32.6359 162.852 28.0648 162.958 21.0486C163.065 14.8828 163.172 9.1423 163.172 3.827C163.172 2.65763 164.13 1.80718 165.195 1.70088L176.272 1.59457C177.337 1.59457 178.189 2.33872 178.402 3.40178C179.148 7.86663 179.467 12.1189 179.467 16.3711C179.467 20.0918 179.148 23.9188 178.615 27.9585C177.018 40.1836 172.97 46.8809 166.686 48.0503C163.704 48.5818 160.402 48.9007 156.674 48.9007H156.248C151.669 48.9007 148.26 48.4755 146.024 47.5187C141.018 45.2863 138.142 38.3764 137.716 26.6828Z" fill="white" stroke="black" stroke-miterlimit="10"/>
</g>
<defs>
<clipPath id="clip0">
<rect width="180" height="61.6575" fill="white"/>
</clipPath>
</defs>
</svg>
