<svg width="350" height="55" viewBox="0 0 350 55" fill="none" xmlns="http://www.w3.org/2000/svg">
<path d="M28.1297 17.8928L20.2249 18.0812C19.7487 18.0812 19.3677 18.458 19.2725 19.0231L17.3677 27.9709C17.1772 28.9128 16.2249 29.1954 15.6534 28.4419L11.0819 21.6603C10.4153 20.7185 9.46288 20.3417 8.51048 20.7185L1.08183 19.965C0.0342007 20.3417 0.700876 25.2395 1.46279 26.1814L12.8915 40.4979L11.2724 42.0991L8.70096 52.083C8.41524 53.2133 9.17715 54.4377 10.2248 54.1552L20.2249 52.554C20.7011 52.4598 21.082 51.9888 21.2725 51.4237L29.1774 19.3998C29.2726 18.6463 28.7964 17.8928 28.1297 17.8928Z" fill="black"/>
<path d="M52.7014 17.2335C49.9394 14.4079 46.8918 13.3718 43.3679 13.937C39.9393 14.5963 37.1774 16.6684 35.1774 20.3417C33.1774 24.3918 32.4154 28.8186 32.9869 33.6222C33.5583 38.3316 35.1774 42.1933 38.0345 45.2073C40.7012 47.7504 43.7489 48.6923 47.2727 48.033C50.7966 47.3737 53.5585 45.3957 55.5585 42.0991C57.5586 38.3316 58.3205 33.999 57.749 29.2896C57.1776 24.486 55.4633 20.4359 52.7014 17.2335ZM48.4156 34.8467C47.8442 35.9769 46.987 36.6362 46.0346 36.8246C45.0822 37.013 44.1298 36.6362 43.2727 35.7885C42.4155 34.7525 41.9394 33.528 41.7489 32.1152C41.5584 30.7966 41.7489 29.3838 42.3203 27.971C42.3203 27.8768 42.4155 27.7826 42.4155 27.6884C42.987 26.6523 43.7489 26.0872 44.7013 25.8988C45.6537 25.7104 46.5108 25.993 47.368 26.8407C47.4632 26.9349 47.4632 26.9349 47.5584 27.0291C48.3204 28.2535 48.8918 29.478 48.987 30.7966C49.1775 32.2094 48.987 33.528 48.4156 34.8467Z" fill="black"/>
<path d="M82.2256 9.03918C82.1304 8.47405 81.6542 8.0973 81.178 8.19149L74.3208 9.22755C73.7493 9.32174 73.3684 9.88687 73.4636 10.5462C73.8446 14.4079 74.1303 18.6463 74.5113 23.2615C74.8922 28.3477 74.797 31.6443 74.1303 33.2455C73.9398 33.8106 73.3684 34.0931 72.6065 34.2815H72.416C71.7493 34.3757 71.2731 34.1873 70.8922 33.8106C70.2255 32.9629 69.7493 30.7966 69.4636 27.5C69.3683 25.993 69.1779 24.2976 69.1779 22.3197C69.0826 20.3417 68.9874 17.8928 68.8922 14.973C68.7969 13.3718 68.7969 12.0532 68.7017 11.2055C68.7017 10.5462 68.1302 9.98106 67.654 10.0752L60.7968 11.0171C60.3206 11.1113 59.9397 11.4881 59.9397 12.0532C59.4635 16.951 59.4635 21.8487 59.9397 26.8407C60.0349 27.6884 60.1301 28.5361 60.2254 29.3838C61.273 37.7665 63.3683 42.5701 66.6064 43.7003C67.9398 44.1712 69.9398 44.2654 72.6065 43.8887H72.8922C74.9875 43.6061 76.8922 43.1352 78.6065 42.3817C82.2256 40.9689 84.0352 35.7885 84.1304 26.8407C84.2257 23.9209 84.0352 21.0952 83.8447 18.458C83.4637 15.444 82.8923 12.2416 82.2256 9.03918Z" fill="black"/>
<path d="M104.512 25.0511C104.131 24.486 104.131 23.6383 104.607 23.2615C105.94 22.0371 106.893 20.5301 107.464 18.7405C107.94 17.4219 108.131 16.0091 108.035 14.5963C107.94 13.7486 107.845 12.9951 107.655 12.3357C106.988 9.79268 105.845 8.00311 104.131 6.96704C102.226 5.83679 99.8449 5.36585 97.083 5.7426C93.4639 6.11935 90.0353 6.77866 86.7019 7.72054C86.2257 7.81473 85.8447 8.47405 85.94 9.03917L88.8924 39.3677C88.9876 40.4037 89.7496 41.1572 90.6067 41.063L95.5591 40.3095C96.4163 40.2154 96.9877 39.2735 96.8925 38.2374L96.6068 33.6222C96.5115 32.4919 97.7496 31.8326 98.3211 32.6803L102.702 38.8025C103.274 39.556 104.131 39.6502 104.797 39.0851L110.226 33.6222C110.988 32.9629 110.702 27.1232 110.702 27.1232L104.512 25.0511ZM99.5592 19.0231C99.083 19.6824 98.6068 20.0592 97.8449 20.1533C97.083 20.2475 96.6068 19.965 96.0353 19.494C95.5591 18.9289 95.1782 18.0812 95.0829 16.7626C94.9877 15.4439 95.1782 14.5021 95.5591 13.8428C96.0353 13.1834 96.5115 12.8067 97.2735 12.7125C97.9401 12.6183 98.5116 12.9009 99.083 13.3718C99.5592 13.9369 99.9401 14.7846 100.035 16.1033C100.226 17.4219 100.035 18.3638 99.5592 19.0231Z" fill="black"/>
<path d="M142.798 5.74262C140.798 3.19954 138.036 1.9751 134.512 2.25767C131.369 2.44604 128.321 2.91698 125.369 3.57629C124.226 3.85886 123.464 5.0833 123.559 6.49612L125.655 36.3537C125.75 37.1072 126.321 37.6723 126.893 37.6723L133.94 36.542C134.512 36.4479 134.988 35.7885 134.893 34.9409L134.321 28.3477C134.226 27.5 133.94 27.0291 134.607 27.1233C135.083 27.1233 135.655 27.1233 136.131 27.1233C138.512 26.9349 140.512 25.993 142.131 24.2976C144.131 22.2255 145.179 19.3999 145.274 16.0091C145.274 15.3498 145.274 14.5963 145.274 13.8428C145.179 10.3578 144.321 7.72056 142.798 5.74262ZM136.988 17.3277C136.512 17.987 135.94 18.3638 135.274 18.458C134.607 18.5522 134.036 18.1754 133.464 17.6103C132.893 16.5742 132.607 15.444 132.607 14.1253C132.512 12.9951 132.797 12.0532 133.178 11.3939C133.559 10.7346 134.226 10.3578 134.893 10.2636C135.559 10.1694 136.131 10.5462 136.702 11.1113C137.178 11.7706 137.464 12.6183 137.559 13.7486C137.559 15.0672 137.369 16.2917 136.988 17.3277Z" fill="black"/>
<path d="M162.607 2.44604C161.655 0.844849 159.655 1.03322 158.893 2.82279L146.893 25.993L146.607 30.6082C146.512 31.7385 146.607 32.3036 147.274 32.5862L154.702 35.7885C155.274 36.0711 155.845 35.6944 156.131 35.035L157.94 29.9489C158.131 29.478 158.512 29.1012 158.893 29.1012L165.464 28.5361C165.845 28.5361 166.226 28.7244 166.417 29.1012L169.369 34.1873C169.655 34.7525 170.321 34.9408 170.798 34.6583L178.131 30.1373C178.893 29.478 178.893 24.7686 178.798 23.8267L162.607 2.44604ZM159.655 21.5662L161.369 16.3858L163.75 21.1894L159.655 21.5662Z" fill="black"/>
<path d="M196.132 15.444C192.703 14.2195 190.894 12.8067 190.703 11.2997C190.703 11.2055 190.703 11.1113 190.703 11.0172C190.703 10.5462 190.894 10.1695 191.179 9.79271C191.56 9.41596 192.036 9.1334 192.513 9.03921C192.608 9.03921 192.703 9.03921 192.798 9.03921C193.275 9.03921 193.656 9.32177 193.941 9.79271C194.036 9.98109 194.132 10.1695 194.227 10.3578C194.608 11.2997 195.465 11.7707 196.227 11.6765L199.37 11.2997C200.798 11.1113 201.751 9.22758 201.179 7.5322C200.513 5.46007 199.37 3.85887 197.846 2.63443C196.132 1.3158 194.036 2.16349 191.179 2.06931C190.798 2.06931 190.417 2.06931 190.132 2.16349C187.37 2.44606 184.894 1.88093 182.893 3.6705C180.798 5.64844 179.751 8.09733 179.751 10.923C179.751 13.5602 180.417 15.5382 181.751 16.951C182.703 17.987 184.132 18.8347 186.036 19.3999C189.084 20.2476 190.703 20.7185 190.894 20.9069C192.036 21.472 192.608 22.4139 192.608 23.6383V23.9209C192.513 24.8628 192.227 25.5221 191.751 25.993C191.37 26.2756 190.989 26.464 190.513 26.464C190.417 26.464 190.322 26.464 190.132 26.464C189.751 26.2756 189.37 26.0872 189.084 25.6163C188.798 25.2395 188.608 24.7686 188.608 24.2034C188.608 24.1093 188.608 23.9209 188.608 23.7325L179.465 22.6964C179.465 23.0732 179.37 23.5441 179.37 23.9209C179.37 24.2034 179.37 24.5802 179.37 24.8628C179.56 26.9349 180.322 28.9128 181.751 30.7966C184.036 33.7164 187.179 35.1292 191.179 35.1292C194.417 35.1292 197.084 34.0932 199.37 32.1152C201.656 30.1373 203.275 24.8628 203.275 21.9429C203.275 19.8708 202.608 18.0812 201.37 16.3859C200.322 14.5963 198.132 16.1033 196.132 15.444Z" fill="black"/>
<path d="M221.084 15.9149C217.751 14.5963 215.941 13.1835 215.751 11.5823C215.751 11.4881 215.751 11.3939 215.751 11.2997C215.751 10.8288 215.941 10.452 216.227 10.0753C216.608 9.69852 217.084 9.41596 217.656 9.32177C217.751 9.32177 217.846 9.32177 217.941 9.32177C218.418 9.32177 218.799 9.60434 219.084 10.0753C219.18 10.2637 219.275 10.452 219.37 10.6404C219.751 11.5823 220.608 12.0532 221.37 11.959L224.513 11.6765C225.942 11.5823 226.894 9.69852 226.418 8.00314C225.751 5.93101 224.703 4.32982 223.18 3.01119C221.465 1.59837 219.465 3.19956 216.608 3.10537C216.227 3.10537 215.846 3.10537 215.56 3.10537C212.798 3.29375 210.227 1.88093 208.227 3.6705C206.132 5.64845 204.989 8.00314 204.989 10.8288C204.989 13.3719 205.56 15.444 206.894 16.951C207.846 17.9871 209.275 18.8347 211.179 19.5882C214.227 20.5301 215.846 21.0953 216.037 21.1894C217.179 21.8488 217.751 22.7906 217.751 23.9209V24.2035C217.656 25.1453 217.37 25.8046 216.799 26.2756C216.418 26.5581 216.037 26.7465 215.465 26.7465C215.275 26.6523 215.084 26.6523 214.894 26.5581C214.608 26.3698 214.322 26.1814 214.132 25.8046C213.846 25.4279 213.656 24.957 213.656 24.3918C213.656 24.2976 213.656 24.1093 213.656 23.9209L204.513 22.6023C204.417 22.979 204.417 23.4499 204.417 23.8267C204.417 24.1093 204.417 24.486 204.417 24.7686C204.513 26.9349 205.275 28.9128 206.703 30.7966C208.894 33.8106 212.037 35.3176 216.037 35.4118C219.275 35.506 223.275 33.9048 225.465 31.9269C227.751 29.9489 228.894 27.5 228.989 24.5802C228.989 22.5081 228.132 19.0231 226.894 17.3277C225.656 15.5382 223.084 16.6684 221.084 15.9149Z" fill="black"/>
<path d="M272.037 5.0833L263.275 4.51818C263.18 4.51818 262.99 4.61237 262.99 4.80074L257.561 19.8708C257.466 20.2476 256.99 20.1534 256.99 19.7766L255.751 11.1113C255.561 9.88688 254.799 8.94501 253.751 8.94501L248.513 8.56826C247.561 8.47407 246.609 9.22757 246.323 10.3578L244.037 18.7405C243.942 19.2115 243.37 19.1173 243.37 18.6464L240.704 3.5763C240.513 2.25767 239.466 1.31579 238.323 1.50417L232.227 2.35185C230.894 2.54023 229.942 4.3298 230.418 5.93099L238.418 34.7525C238.513 35.2234 238.894 35.6002 239.37 35.6002L246.323 36.0711C246.799 36.0711 247.18 35.7886 247.37 35.3176L250.228 27.971C250.323 27.5942 250.799 27.5942 250.894 28.0651L252.894 35.6944C252.99 36.2595 253.371 36.5421 253.847 36.6362L260.799 37.1072C261.275 37.1072 261.656 36.8246 261.847 36.3537L272.609 5.74262C272.704 5.46006 271.466 7.15544 272.037 5.0833Z" fill="black"/>
<path d="M287.847 5.74261C284.419 5.36586 281.371 6.68449 278.704 9.60431C276.037 12.9951 274.514 17.0451 274.133 21.9429C273.752 26.7465 274.704 30.985 276.895 34.5641C278.99 37.7665 281.847 39.556 285.371 39.9328C288.895 40.3095 291.942 39.1793 294.514 36.4478C297.181 33.3396 298.704 29.3838 298.99 24.5802C299.371 19.7766 298.419 15.3498 296.228 11.4881C294.133 8.0973 291.371 6.11936 287.847 5.74261ZM290.228 23.7325C290.133 25.1453 289.657 26.3697 288.895 27.5C288.133 28.4419 287.18 28.8186 286.228 28.7244C285.276 28.6303 284.418 28.0651 283.752 26.9349C283.085 25.7104 282.895 24.3918 282.99 22.979C283.085 21.5662 283.561 20.2475 284.323 19.0231C285.085 18.0812 286.038 17.7045 286.99 17.7987C288.038 17.8928 288.799 18.458 289.466 19.5882C290.133 20.9069 290.419 22.3197 290.228 23.7325Z" fill="black"/>
<path d="M321.466 11.6764C319.752 10.0752 317.562 9.03918 314.704 8.66243C311.276 8.19149 308.038 8.00311 304.8 8.00311C303.942 8.00311 303.276 8.8508 303.276 9.79268L300.133 39.7444C300.133 40.3095 300.419 40.7805 300.895 40.7805L308.419 42.1933C308.8 42.1933 309.181 41.9107 309.276 41.3456L310.038 34.1873C310.133 33.528 310.8 33.4338 310.99 33.9048L315.276 43.2294C315.466 43.7003 315.942 43.8887 316.323 43.6061L323.562 39.0851C323.657 38.9909 323.847 38.52 323.943 37.6723L324.038 31.3617L318.228 28.0651C320.228 27.1232 321.752 25.7104 322.8 23.8267C323.466 22.6022 323.847 21.2836 324.038 19.8708C324.133 19.0231 324.133 18.2696 324.038 17.6103C323.752 15.1614 322.99 13.1834 321.466 11.6764ZM315.943 19.5882C315.847 20.9068 315.466 21.8487 314.99 22.3197C314.419 22.8848 313.847 23.0732 313.181 22.979C312.514 22.8848 311.942 22.508 311.561 21.8487C311.181 21.1894 310.99 20.2475 311.085 18.9289C311.181 17.6103 311.561 16.6684 312.038 16.1975C312.609 15.6323 313.181 15.444 313.847 15.5381C314.514 15.6323 315.085 16.0091 315.466 16.6684C315.943 17.3277 316.133 18.2696 315.943 19.5882Z" fill="black"/>
<path d="M346.99 20.5301C344.8 16.0091 340.514 13.1835 334.228 12.1474C332.99 11.959 331.657 11.7706 330.228 11.6765C329.466 11.6765 328.705 12.3358 328.609 13.3718L323.276 43.3236C323.181 43.8887 323.562 44.4538 324.038 44.4538C329.466 44.8306 335.752 44.8306 339.181 43.7945C344.99 42.1933 348.324 37.7665 349.086 30.6082C349.467 27.5 348.705 24.2034 346.99 20.5301ZM340.324 29.3838C340.133 31.2675 339.467 32.6803 338.324 33.7164C337.752 34.2815 337.086 34.7525 336.324 35.035C335.752 35.3176 335.086 34.6583 335.181 33.8106L336.419 22.6022C336.705 22.6022 336.99 22.6022 337.276 22.6022C337.467 22.6022 337.562 22.6964 337.752 22.6964C338.324 22.8848 338.8 23.4499 339.371 24.2976C340.228 25.8046 340.609 27.5 340.324 29.3838Z" fill="black"/>
<path d="M28.1298 15.0672L20.225 15.1614C19.7488 15.1614 19.3678 15.444 19.2726 15.9149L17.3678 22.979C17.1773 23.7325 16.2249 23.9209 15.6535 23.3557L11.082 17.987C10.4153 17.2335 9.46295 16.951 8.51056 17.2335L2.12953 19.1173C1.0819 19.3998 0.700948 20.7185 1.5581 21.472L14.2249 34.1873L11.6534 42.0991C11.3677 43.041 12.1296 43.9829 13.1773 43.7945L20.3202 42.4759C20.7964 42.3817 21.1774 42.0049 21.3678 41.6282L29.2727 16.1975C29.2727 15.7265 28.7965 15.0672 28.1298 15.0672Z" fill="white" stroke="black" stroke-miterlimit="10"/>
<path d="M52.7014 14.5962C49.9394 12.3357 46.8918 11.488 43.3679 11.959C39.9393 12.4299 37.1774 14.1253 35.1774 17.0451C33.1774 20.2475 32.4154 23.7325 32.9869 27.5942C33.5583 31.3617 35.1774 34.3757 38.0345 36.7304C40.7012 38.7083 43.7489 39.4618 47.2727 38.9909C50.7966 38.52 53.5585 36.9188 55.5585 34.2815C57.5586 31.2675 58.3205 27.8767 57.7491 24.1092C57.1776 20.3417 55.4633 17.1393 52.7014 14.5962ZM48.4156 28.536C47.8442 29.3837 46.987 29.9489 46.0346 30.043C45.0822 30.1372 44.1298 29.9489 43.2727 29.1954C42.4155 28.3477 41.9394 27.4058 41.7489 26.2755C41.5584 25.2395 41.7489 24.1092 42.3203 22.979C42.3203 22.8848 42.4155 22.7906 42.4155 22.7906C42.987 21.9429 43.7489 21.472 44.7013 21.3778C45.6537 21.2836 46.5108 21.472 47.368 22.1313C47.4632 22.2255 47.4632 22.2255 47.5585 22.3197C48.3204 23.2615 48.8918 24.2976 48.987 25.3337C49.1775 26.4639 48.987 27.5 48.4156 28.536Z" fill="white" stroke="black" stroke-miterlimit="10"/>
<path d="M82.2256 8.09728C82.1304 7.62634 81.6542 7.34378 81.178 7.43797L74.3208 8.28566C73.7493 8.37984 73.3684 8.85079 73.4636 9.32173C73.8446 12.4299 74.1303 15.8207 74.5113 19.3998C74.8922 23.4499 74.797 26.0872 74.1303 27.3116C73.9398 27.6884 73.3684 27.9709 72.6065 28.1593H72.416C71.7493 28.2535 71.2731 28.1593 70.8922 27.7826C70.2255 27.1232 69.7493 25.4279 69.4636 22.6964C69.3683 21.472 69.1779 20.1533 69.1779 18.5521C69.0826 16.9509 68.9874 15.0672 68.8922 12.7125C68.7969 11.3939 68.7969 10.452 68.7017 9.79267C68.7017 9.22754 68.1302 8.85079 67.654 8.85079L60.7968 9.60429C60.3206 9.69848 59.9397 9.98104 59.9397 10.452C59.4635 14.3137 59.4635 18.1754 59.9397 22.1313C60.0349 22.7906 60.1301 23.4499 60.2254 24.1092C61.273 30.7966 63.3683 34.5641 66.6064 35.506C67.9398 35.8827 69.9398 35.9769 72.6065 35.6001H72.8922C74.9875 35.3176 76.8922 34.9408 78.6065 34.4699C82.2256 33.3396 84.0352 29.2896 84.1304 22.1313C84.2257 19.7766 84.0352 17.6103 83.8447 15.4439C83.4637 13.1834 82.8923 10.6404 82.2256 8.09728Z" fill="white" stroke="black" stroke-miterlimit="10"/>
<path d="M104.512 20.8127C104.131 20.4359 104.131 19.6824 104.607 19.3999C105.94 18.3638 106.893 17.2335 107.464 15.8207C107.94 14.7847 108.131 13.6544 108.035 12.5241C107.94 11.8648 107.845 11.2997 107.655 10.7346C106.988 8.75663 105.845 7.34382 104.131 6.49613C102.226 5.55425 99.8449 5.27168 97.083 5.46006C93.4639 5.74262 90.0353 6.30775 86.7019 7.06125C86.2257 7.15544 85.8447 7.62638 85.94 8.09732L88.8924 32.1152C88.9876 32.9629 89.7496 33.528 90.6067 33.4339L95.5591 32.8687C96.4163 32.7745 96.9877 32.021 96.8925 31.2675L96.6068 27.5942C96.5115 26.6523 97.7496 26.1814 98.3211 26.8407L102.702 31.7385C103.274 32.3036 104.131 32.3978 104.797 31.9268L109.559 28.4419C110.321 27.8768 110.416 26.7465 109.75 26.0872L104.512 20.8127ZM99.5592 16.0091C99.083 16.48 98.6068 16.8568 97.8449 16.8568C97.083 16.8568 96.6068 16.7626 96.0353 16.2917C95.5591 15.9149 95.1782 15.1614 95.0829 14.1253C94.9877 13.0893 95.1782 12.3358 95.5591 11.7706C96.0353 11.2997 96.5115 10.923 97.2734 10.923C97.9401 10.8288 98.5116 11.0171 99.083 11.4881C99.5592 11.8648 99.9401 12.6183 100.035 13.6544C100.226 14.6905 100.035 15.5382 99.5592 16.0091Z" fill="white" stroke="black" stroke-miterlimit="10"/>
<path d="M142.798 5.46C140.798 3.38787 138.036 2.44599 134.512 2.72856C131.369 2.91693 128.321 3.29368 125.369 3.76462C124.226 3.953 123.464 4.98906 123.559 6.02513L125.655 29.7605C125.75 30.4198 126.321 30.7965 126.893 30.7965L133.083 30.1372C133.655 30.043 134.131 29.4779 134.036 28.9128L133.464 23.6383C133.369 22.9789 133.94 22.4138 134.607 22.4138C135.083 22.4138 135.655 22.4138 136.131 22.4138C138.512 22.3196 140.512 21.5661 142.131 20.1533C144.131 18.4579 145.179 16.2916 145.274 13.5602C145.274 12.995 145.274 12.4299 145.274 11.7706C145.179 9.13333 144.321 7.0612 142.798 5.46ZM136.988 14.6904C136.512 15.2555 135.94 15.5381 135.274 15.5381C134.607 15.5381 134.036 15.3497 133.464 14.8788C132.893 14.1253 132.607 13.1834 132.607 12.1473C132.512 11.2997 132.797 10.5461 133.178 9.98102C133.559 9.41589 134.226 9.13333 134.893 9.13333C135.559 9.13333 136.131 9.32171 136.702 9.79265C137.178 10.2636 137.464 11.0171 137.559 11.8648C137.559 12.9008 137.369 13.8427 136.988 14.6904Z" fill="white" stroke="black" stroke-miterlimit="10"/>
<path d="M162.607 2.82279C161.655 1.50416 159.655 1.69254 158.893 3.10535L147.369 25.4279C147.083 25.993 147.369 26.7465 148.036 27.0291L154.607 29.1954C155.179 29.3838 155.75 29.1012 156.036 28.5361L157.845 24.486C158.036 24.1093 158.417 23.8267 158.798 23.8267L165.369 23.3557C165.75 23.3557 166.131 23.5441 166.322 23.8267L169.274 27.8768C169.56 28.3477 170.227 28.4419 170.703 28.2535L177.465 24.9569C178.131 24.6744 178.322 23.8267 177.846 23.2616L162.607 2.82279ZM159.655 17.987L161.369 13.8428L163.75 17.6103L159.655 17.987Z" fill="white" stroke="black" stroke-miterlimit="10"/>
<path d="M196.132 13.1834C192.703 12.2416 190.894 11.1113 190.703 9.88686C190.703 9.79267 190.703 9.69848 190.703 9.6043C190.703 9.22755 190.894 8.94498 191.179 8.56823C191.56 8.19148 192.036 8.0031 192.513 7.90892C192.608 7.90892 192.703 7.90892 192.798 7.90892C193.275 7.90892 193.656 8.09729 193.941 8.47404C194.036 8.56823 194.132 8.75661 194.227 8.85079C194.608 9.6043 195.465 9.98105 196.227 9.88686L199.37 9.6043C200.798 9.51011 201.751 8.0031 201.179 6.59028C200.513 4.98909 199.37 3.67046 197.846 2.72858C196.132 1.69252 193.846 1.12739 190.989 1.0332C190.608 1.0332 190.227 1.0332 189.941 1.0332C187.179 1.22158 184.894 2.06927 182.893 3.48209C180.798 5.08328 179.751 6.96704 179.751 9.22754C179.751 11.2997 180.417 12.9009 181.751 14.0311C182.703 14.8788 184.132 15.4439 186.036 16.0091C189.084 16.6684 190.703 17.0451 190.894 17.1393C192.036 17.6103 192.608 18.3638 192.608 19.3056V19.494C192.513 20.2475 192.227 20.8127 191.751 21.0952C191.37 21.3778 190.989 21.472 190.513 21.472C190.417 21.472 190.322 21.472 190.132 21.472C189.751 21.3778 189.37 21.0952 189.084 20.8127C188.798 20.5301 188.608 20.1533 188.608 19.6824C188.608 19.5882 188.608 19.494 188.608 19.3056L180.417 18.7405C179.751 18.458 179.37 19.1173 179.37 19.3998C179.37 19.6824 179.37 19.8708 179.37 20.1533C179.56 21.8487 180.322 23.3557 181.751 24.8627C184.036 27.2174 187.179 28.3477 191.179 28.3477C194.417 28.3477 197.084 27.5 199.37 25.8988C201.656 24.2976 202.703 22.3197 202.703 19.965C202.703 18.3638 202.037 16.8568 200.798 15.5381C199.751 14.6904 198.132 13.7486 196.132 13.1834Z" fill="white" stroke="black" stroke-miterlimit="10"/>
<path d="M221.084 13.466C217.751 12.43 215.941 11.2997 215.751 10.0753C215.751 9.98108 215.751 9.88689 215.751 9.7927C215.751 9.41595 215.941 9.13339 216.227 8.85083C216.608 8.56826 217.084 8.2857 217.656 8.2857C217.751 8.2857 217.846 8.2857 217.941 8.2857C218.418 8.2857 218.799 8.47407 219.084 8.85083C219.18 9.0392 219.275 9.13339 219.37 9.22758C219.751 9.98108 220.608 10.3578 221.37 10.2636L224.513 10.0753C225.942 9.98108 226.894 8.47407 226.418 7.15544C225.751 5.55425 224.703 4.23562 223.18 3.19955C221.465 2.0693 219.18 1.50417 216.322 1.3158C215.941 1.3158 215.56 1.3158 215.275 1.3158C212.513 1.40998 210.227 2.25767 208.227 3.67049C206.132 5.1775 204.989 7.06126 204.989 9.32177C204.989 11.3939 205.56 12.9951 206.894 14.1253C207.846 14.973 209.275 15.6324 211.179 16.1975C214.227 16.951 215.846 17.4219 216.037 17.5161C217.179 17.9871 217.751 18.7406 217.751 19.6824V19.8708C217.656 20.6243 217.37 21.1894 216.799 21.472C216.418 21.7546 216.037 21.8488 215.465 21.8488C215.275 21.8488 215.084 21.7546 214.894 21.7546C214.608 21.6604 214.322 21.472 214.132 21.1894C213.846 20.9069 213.656 20.5301 213.656 20.0592C213.656 19.965 213.656 19.8708 213.656 19.6824L204.513 18.6464C204.417 19.0231 204.417 19.3057 204.417 19.6824C204.417 19.965 204.417 20.1534 204.417 20.4359C204.513 22.1313 205.275 23.7325 206.703 25.1453C208.894 27.5 212.037 28.7245 216.037 28.8187C219.275 28.9128 221.941 28.1593 224.227 26.5581C226.513 25.0511 227.656 23.0732 227.751 20.7185C227.751 19.1173 227.18 17.6103 226.037 16.2917C224.703 15.0672 223.084 14.1253 221.084 13.466Z" fill="white" stroke="black" stroke-miterlimit="10"/>
<path d="M271.18 4.32981L265.466 3.67049C263.942 3.48212 262.513 4.32981 261.942 5.74263L257.466 16.6684C257.371 16.951 256.894 16.951 256.894 16.5742L255.656 9.69851C255.466 8.75663 254.704 8.00313 253.656 7.90895L248.418 7.62638C247.466 7.5322 246.513 8.19151 246.228 9.0392L243.942 15.6324C243.847 16.0091 243.275 15.9149 243.275 15.6324L240.608 3.67049C240.418 2.63443 239.37 1.88092 238.228 1.97511L232.132 2.72861C230.799 2.91699 229.846 4.23562 230.323 5.55425L238.323 28.4419C238.418 28.8187 238.799 29.1012 239.275 29.1954L246.228 29.5721C246.704 29.5721 247.085 29.3838 247.275 29.007L250.132 23.1674C250.228 22.8848 250.704 22.8848 250.799 23.1674L252.799 29.2896C252.894 29.6663 253.275 29.9489 253.751 30.0431L260.704 30.4198C261.18 30.4198 261.561 30.2315 261.752 29.7605L272.418 6.6845C272.895 5.64844 272.228 4.424 271.18 4.32981Z" fill="white" stroke="black" stroke-miterlimit="10"/>
<path d="M287.847 5.46002C284.419 5.17746 281.371 6.21353 278.704 8.56823C276.037 11.2055 274.514 14.5021 274.133 18.3638C273.752 22.1313 274.704 25.522 276.895 28.4419C278.99 30.9849 281.847 32.3977 285.371 32.6803C288.895 32.9629 291.942 32.1152 294.514 29.9489C297.18 27.5 298.704 24.2976 298.99 20.5301C299.371 16.6684 298.419 13.1834 296.228 10.0752C294.133 7.34378 291.371 5.74259 287.847 5.46002ZM290.228 19.7766C290.133 20.9068 289.657 21.8487 288.895 22.7906C288.133 23.5441 287.18 23.8267 286.228 23.7325C285.276 23.6383 284.418 23.1673 283.752 22.3197C283.085 21.2836 282.895 20.2475 282.99 19.1173C283.085 17.987 283.561 16.9509 284.323 15.9149C285.085 15.1614 286.038 14.8788 286.99 14.973C288.038 15.0672 288.799 15.5381 289.466 16.3858C290.133 17.5161 290.419 18.6463 290.228 19.7766Z" fill="white" stroke="black" stroke-miterlimit="10"/>
<path d="M321.466 10.1694C319.752 8.85077 317.561 8.09726 314.704 7.8147C311.276 7.43795 308.037 7.24957 304.799 7.24957C303.942 7.24957 303.275 7.90889 303.275 8.66239L301.275 33.0571C301.275 33.528 301.561 33.9047 302.037 33.9047L308.514 34.3757C308.895 34.3757 309.275 34.0931 309.371 33.7164L310.133 28.0651C310.228 27.5942 310.895 27.4058 311.085 27.8767L315.371 35.3176C315.561 35.6943 316.037 35.7885 316.418 35.6001L323.276 32.4919C323.752 32.3036 323.847 31.7384 323.657 31.3617L318.323 23.2615C320.323 22.508 321.847 21.3778 322.895 19.8707C323.561 18.9289 323.942 17.8928 324.133 16.7625C324.228 16.1032 324.228 15.4439 324.133 14.973C323.752 12.995 322.99 11.2996 321.466 10.1694ZM315.942 16.48C315.847 17.5161 315.466 18.2696 314.99 18.6463C314.418 19.0231 313.847 19.2114 313.18 19.1172C312.514 19.0231 311.942 18.7405 311.561 18.1754C311.18 17.7044 310.99 16.8567 311.085 15.8207C311.18 14.7846 311.561 14.0311 312.037 13.6543C312.609 13.2776 313.18 13.0892 313.847 13.1834C314.514 13.2776 315.085 13.5602 315.466 14.1253C315.942 14.5962 316.133 15.4439 315.942 16.48Z" fill="white" stroke="black" stroke-miterlimit="10"/>
<path d="M346.99 17.1393C344.8 13.5602 340.514 11.2997 334.228 10.452C332.99 10.2636 331.657 10.1694 330.228 10.0753C329.466 10.0753 328.705 10.6404 328.609 11.3939L325.181 35.506C325.085 35.9769 325.466 36.3537 325.943 36.4479C331.371 36.7304 335.752 36.542 339.181 35.6944C344.99 34.3757 348.324 30.8908 349.086 25.2395C349.467 22.7906 348.705 20.0592 346.99 17.1393ZM340.324 24.2976C340.133 25.8046 339.467 26.9349 338.324 27.7826C337.752 28.2535 337.086 28.5361 336.324 28.8186C335.752 29.007 335.086 28.5361 335.181 27.8768L336.419 18.9289C336.705 18.9289 336.99 18.9289 337.276 18.9289C337.467 18.9289 337.562 19.0231 337.752 19.0231C338.324 19.2115 338.8 19.5882 339.371 20.2475C340.228 21.3778 340.609 22.6964 340.324 24.2976Z" fill="white" stroke="black" stroke-miterlimit="10"/>
</svg>
