<svg width="268" height="70" viewBox="0 0 268 70" fill="none" xmlns="http://www.w3.org/2000/svg">
<g clip-path="url(#clip0)">
<path d="M18.353 68.423L0.614346 24.3846C0.0768098 23.0384 1.53929e-05 16.1923 1.03669 15.6923L12.2098 15.7307C13.0161 15.3461 13.8992 15.923 14.2447 17.0769L19.8121 35.6538C20.5032 37.923 22.7685 37.4615 22.9989 35L23.8436 25.6154C23.9588 24.5384 24.5347 23.6538 25.2642 23.5384L34.3639 21.6538C35.1318 21.5 35.8613 22.1154 36.1685 23.1923L38.4338 31.7307C39.0482 34.0384 41.3135 33.6923 41.6206 31.3077L44.1931 11.0769C44.3467 9.99997 44.961 9.19228 45.6906 9.07689L56.6333 7.73074C57.7467 7.57689 58.6682 9.11535 58.3994 10.7307L50.2596 61.6154C50.106 62.5769 49.5685 63.3461 48.8774 63.4615L39.7009 65.423C39.0098 65.5769 38.357 65.0769 38.0115 64.1923L35.1318 56.8077C34.4023 54.8846 32.4441 55.2692 32.0602 57.423L30.6012 65.8461C30.4476 66.8077 29.91 67.5384 29.2189 67.6538L20.004 69.6154C19.3513 69.7307 18.6986 69.2692 18.353 68.423Z" fill="black"/>
<path d="M64.3891 7.42306L84.086 3.34613C85.0075 3.15382 85.8522 4.0769 85.9674 5.42306L87.3112 11.8461C87.4264 13.1923 86.4281 18.6923 85.5066 18.8461L76.8293 20.2692C75.9078 20.4231 75.255 21.6538 75.3702 23V23.1923C75.4854 24.5384 76.2917 25.5 77.2132 25.3461L83.5868 24.2692C84.5083 24.1154 85.3146 25.0769 85.4298 26.4231L86.0058 33.4615C86.1209 34.8077 85.4298 36.0384 84.5083 36.1923L78.0963 37.0384C77.1364 37.1538 76.4837 38.4231 76.5989 39.8077C76.7141 41.1154 77.4436 39.1538 78.3267 39.0384L89.8069 36.2308C90.69 36.1154 91.4963 37 91.6115 38.3077L91.957 54.4615C92.1106 55.8077 90.4596 57.1923 89.5381 57.3461L67.9215 61.1154C67 61.2692 66.1553 60.2692 66.0785 58.9231L63.0069 10.1154C62.8533 8.76921 63.506 7.5769 64.3891 7.42306Z" fill="black"/>
<path d="M93.0705 3.30773L102.785 1.80773C103.744 1.65388 104.551 2.69235 104.628 4.07696L106.048 36.077C106.125 37.4231 106.893 38.4231 107.814 38.3462L117.298 37.577C118.181 37.5 120.6 34.6539 120.677 35.9616L119.947 51.2308C120.062 52.6154 119.371 53.8462 118.411 53.9616L95.2206 56.7308C94.2991 56.8462 93.4544 55.8077 93.416 54.4231L91.5347 5.88465C91.5347 4.57696 92.1874 3.42311 93.0705 3.30773Z" fill="black"/>
<path d="M141.372 2.53846C146.056 2.42308 149.665 1.15384 153.121 5C153.966 5.92308 153.966 7.73077 153.198 8.73077L145.595 18.7308C144.943 19.5769 144.021 19.5 143.369 18.7308C142.754 18 142.025 17.5769 141.18 17.5385C141.103 17.5 141.026 17.5 140.95 17.5C140.45 17.5 139.836 17.8462 139.145 18.5C139.068 18.5769 138.991 18.6923 138.915 18.7692C137.456 20.6923 136.726 23.5385 136.764 27.3077V27.5769C136.88 29.6923 137.302 31.5 138.032 32.9615C138.684 34.1154 139.567 34.9231 140.604 35.3846C141.295 35.6923 141.948 35.8462 142.562 35.8077C143.983 35.7692 145.327 34.8077 146.594 32.9615C147.208 32.0385 148.206 32 148.859 32.8077L156.884 30.1538C157.959 29.8077 156.73 44.1538 156.154 45.1538C152.622 51.1923 147.707 54.2692 141.449 54.4231C135.997 54.5385 131.428 52.3077 127.742 47.7692C123.902 42.6923 121.944 36.0769 121.867 27.8846C121.79 19.5769 123.595 12.7692 127.319 7.42308C131.044 2.23077 136.035 2.65385 141.372 2.53846Z" fill="black"/>
<path d="M176.619 0.192331C181.38 0.384639 185.373 3.19233 188.522 8.57695C191.747 14.5769 193.283 21.5 193.091 29.2693C192.937 36.9231 191.132 43.4231 187.754 48.6923C187.715 48.7693 187.677 48.8077 187.638 48.8846C184.336 53.4231 180.267 55.577 175.467 55.3846C170.668 55.1923 166.713 52.6539 163.603 47.8462C163.564 47.7693 163.526 47.7308 163.488 47.6539C160.301 42.0769 158.765 35.4231 158.957 27.7693C159.111 19.9616 160.915 13.2308 164.371 7.50002C167.75 2.4231 171.858 -0.0384378 176.619 0.192331ZM176.235 19.5C174.93 19.4231 173.778 20.1154 172.779 21.5385C172.703 21.6923 172.587 21.8462 172.511 22C171.551 24.0769 171.09 26.1539 171.013 28.3077C170.975 30.577 171.397 32.6923 172.357 34.6154C173.317 36.2693 174.469 37.1154 175.851 37.1539C177.233 37.2308 178.424 36.4616 179.46 34.9231C180.458 33.0769 180.996 31.0385 181.034 28.7693C181.073 26.6154 180.689 24.4616 179.806 22.3077C179.729 22.1539 179.652 22 179.575 21.8462C178.692 20.3462 177.54 19.5385 176.235 19.5Z" fill="black"/>
<path d="M218.7 20.1539L225.419 6.07698C226.226 4.38467 228.03 4.84621 228.414 6.84621L237.821 39.2693C238.09 40.7693 236.977 59.1539 235.901 59.2308L228.568 59.6154C227.8 59.6539 227.109 58.9231 226.917 57.8462L224.229 44.3462C223.845 42.3847 222.041 41.9616 221.234 43.6539L217.126 52.3078C216.397 53.8078 214.861 53.6924 214.285 52.0385L211.06 42.8847C210.368 40.9616 208.487 41.1539 207.988 43.1924L204.916 56.2308C204.609 57.5385 203.649 58.1924 202.766 57.7308L195.548 53.7693C194.665 53.2693 194.588 36.7308 194.934 35.4231L207.681 4.57698C208.218 2.6539 210.1 2.53852 210.714 4.4616L215.859 19.8462C216.397 21.5001 217.971 21.6924 218.7 20.1539Z" fill="black"/>
<path d="M245.846 8.57698L265.696 10.8078C266.618 10.9231 267.309 12.077 267.232 13.4616L266.618 24.1924C266.541 25.5385 265.696 26.577 264.775 26.4231L256.097 25.077C255.176 24.9231 254.37 25.9231 254.254 27.2693V27.4616C254.178 28.8078 254.83 30.0001 255.752 30.1154L262.126 31.077C263.047 31.2308 263.7 32.4231 263.623 33.7693L263.124 40.8462C263.047 42.2308 262.202 43.1924 261.242 43.0385L254.869 41.8462C253.909 41.6539 253.064 42.6924 252.987 44.077C252.911 45.3847 253.794 38.6539 254.677 38.8078L264.16 40.5385C265.044 40.6924 265.658 41.8462 265.619 43.1155L264.852 62.9616C264.775 64.3462 263.968 65.3847 263.009 65.2308L241.354 62.1154C240.432 62.0001 239.741 60.7308 239.856 59.3847L244.041 10.7308C244.156 9.42313 244.963 8.50006 245.846 8.57698Z" fill="black"/>
<path d="M18.6986 47.6924L0.959883 17.5385C0.422347 16.6155 0.88309 15.4232 1.88137 15.1155L12.5553 11.6155C13.3616 11.3462 14.2447 11.7309 14.5903 12.5385L20.1576 25.2693C20.8487 26.8078 23.114 26.5001 23.3444 24.8078L24.1891 18.3847C24.3043 17.6539 24.8802 17.0385 25.6097 16.9616L34.7095 15.6924C35.4774 15.577 36.2069 16.0385 36.514 16.7309L38.7794 22.577C39.3937 24.1539 41.659 23.9232 41.9662 22.2693L44.5387 8.42316C44.6923 7.69239 45.3066 7.11546 46.0361 7.077L56.9788 6.15393C58.0923 6.077 59.0138 7.11547 58.745 8.19239L50.6052 43.0385C50.4516 43.6924 49.9141 44.2309 49.2229 44.3078L40.0464 45.6539C39.3553 45.7693 38.7026 45.4232 38.357 44.8078L35.4774 39.7308C34.7479 38.4232 32.7897 38.6924 32.4057 40.1539L30.9467 45.9232C30.7931 46.577 30.2556 47.077 29.5645 47.1539L20.3496 48.5001C19.7352 48.577 19.0441 48.2693 18.6986 47.6924Z" fill="white" stroke="black" stroke-miterlimit="10"/>
<path d="M64.7347 5.88468L84.4315 3.07699C85.353 2.96161 86.1977 3.57699 86.3129 4.50007L87.3112 11.8078C87.4264 12.7308 86.7736 13.577 85.8521 13.6924L77.1748 14.6539C76.2533 14.7693 75.6006 15.577 75.7158 16.5001V16.6539C75.8309 17.577 76.6372 18.2308 77.5587 18.1155L83.9324 17.3847C84.8539 17.2693 85.6602 17.9231 85.7754 18.8462L86.3513 23.6924C86.4665 24.6155 85.7754 25.4616 84.8539 25.5385L78.4418 26.1154C77.4819 26.1924 76.8292 27.077 76.9444 28.0001C77.0596 28.8847 77.8659 29.5385 78.749 29.4231L88.2711 28.5385C89.1542 28.4616 89.9605 29.077 90.0756 29.9616L91.3043 38.077C91.4579 39.0001 90.8052 39.8847 89.8453 40.0001L68.2287 42.577C67.3072 42.6924 66.4625 42.0001 66.3857 41.077L63.314 7.61545C63.1989 6.80776 63.8516 6.00007 64.7347 5.88468Z" fill="white" stroke="black" stroke-miterlimit="10"/>
<path d="M93.416 3.07697L103.13 2.03851C104.09 1.92312 104.896 2.65389 104.973 3.57697L106.394 25.5C106.47 26.4231 107.238 27.1154 108.16 27.077L117.644 26.5385C118.527 26.5 119.295 27.1154 119.41 28L120.331 35.8462C120.446 36.7693 119.755 37.6154 118.795 37.6924L95.6046 39.6154C94.6831 39.6924 93.8384 39 93.8 38.0385L91.9186 4.80774C91.8802 3.92312 92.5329 3.15389 93.416 3.07697Z" fill="white" stroke="black" stroke-miterlimit="10"/>
<path d="M141.257 0.423096C145.941 0.346173 150.011 1.6154 153.466 4.26925C154.311 4.88463 154.311 6.15386 153.543 6.84617L145.941 13.6923C145.288 14.2692 144.367 14.2308 143.714 13.6923C143.1 13.1923 142.37 12.9231 141.525 12.8846C141.449 12.8846 141.372 12.8462 141.295 12.8462C140.796 12.8462 140.182 13.0769 139.491 13.5385C139.414 13.5769 139.337 13.6539 139.26 13.7308C137.801 15.0385 137.072 17 137.11 19.5769V19.7692C137.225 21.2308 137.648 22.4616 138.377 23.4616C139.03 24.2308 139.913 24.8077 140.95 25.1154C141.641 25.3077 142.293 25.4231 142.908 25.4231C144.328 25.3846 145.672 24.7692 146.939 23.4616C147.554 22.8462 148.552 22.8077 149.205 23.3846L156.308 29.5C156.999 30.1154 157.076 31.1539 156.5 31.8462C152.967 36 148.053 38.1154 141.794 38.1923C136.342 38.2692 131.773 36.7692 128.087 33.6154C124.248 30.1539 122.289 25.6154 122.213 20C122.136 14.3077 123.94 9.6154 127.665 6.00002C131.389 2.34617 135.92 0.500019 141.257 0.423096Z" fill="white" stroke="black" stroke-miterlimit="10"/>
<path d="M176.965 0.923122C181.726 1.07697 185.719 2.96159 188.867 6.65389C192.092 10.7693 193.628 15.5 193.436 20.8462C193.283 26.077 191.478 30.5385 188.099 34.1539C188.061 34.1924 188.022 34.2308 187.984 34.2693C184.682 37.3847 180.612 38.8462 175.813 38.7308C171.013 38.577 167.058 36.8462 163.948 33.577C163.91 33.5385 163.872 33.5 163.833 33.4616C160.646 29.6154 159.111 25.077 159.303 19.8462C159.456 14.5001 161.261 9.88466 164.716 5.96159C168.134 2.46159 172.203 0.807737 176.965 0.923122ZM176.581 14.1539C175.275 14.1154 174.123 14.577 173.125 15.5385C173.048 15.6154 172.933 15.7308 172.856 15.8462C171.896 17.2693 171.436 18.6924 171.359 20.1924C171.32 21.7308 171.743 23.1924 172.703 24.5C173.662 25.6154 174.814 26.1924 176.197 26.2308C177.579 26.2693 178.769 25.7693 179.806 24.6924C180.804 23.4231 181.342 22 181.38 20.4616C181.418 19 181.034 17.5 180.151 16.0385C180.075 15.9231 179.998 15.8077 179.921 15.7308C179.038 14.7308 177.886 14.1924 176.581 14.1539Z" fill="white" stroke="black" stroke-miterlimit="10"/>
<path d="M219.084 14.6154L225.803 4.96159C226.61 3.80775 228.414 4.11544 228.798 5.50006L237.821 39.2693C238.09 40.3077 237.322 41.3462 236.285 41.3847L228.952 41.6539C228.184 41.6924 227.493 41.1924 227.301 40.4616L224.613 31.2308C224.229 29.8847 222.425 29.577 221.618 30.7308L217.51 36.6924C216.781 37.7308 215.245 37.6154 214.669 36.5001L211.444 30.2308C210.752 28.9231 208.871 29.0385 208.372 30.4616L205.3 39.3847C204.993 40.2693 204.033 40.7308 203.15 40.4231L195.932 37.6924C195.049 37.3462 194.626 36.3462 194.972 35.5L208.065 4.03852C208.602 2.69236 210.484 2.6539 211.098 3.9616L216.243 14.5001C216.742 15.5385 218.355 15.6539 219.084 14.6154Z" fill="white" stroke="black" stroke-miterlimit="10"/>
<path d="M246.191 6.69229L266.042 8.1923C266.963 8.26922 267.654 9.07691 267.578 9.99999L266.963 17.3461C266.887 18.2692 266.042 18.9615 265.12 18.8846L256.443 17.9615C255.522 17.8461 254.715 18.5385 254.6 19.4615V19.6154C254.523 20.5385 255.176 21.3461 256.097 21.4615L262.471 22.1154C263.393 22.1923 264.045 23.0385 263.969 23.9615L263.469 28.8077C263.393 29.7308 262.548 30.4231 261.588 30.3077L255.214 29.5C254.254 29.3846 253.41 30.0769 253.333 31.0385C253.256 31.9231 253.909 32.7308 254.792 32.8461L264.276 34.0385C265.159 34.1538 265.773 34.9231 265.735 35.8077L265.197 44C265.12 44.9615 264.314 45.6538 263.354 45.5385L241.699 43.4231C240.778 43.3461 240.087 42.5 240.202 41.5385L244.387 8.23075C244.502 7.26922 245.308 6.61537 246.191 6.69229Z" fill="white" stroke="black" stroke-miterlimit="10"/>
</g>
<defs>
<clipPath id="clip0">
<rect width="268" height="70" fill="white"/>
</clipPath>
</defs>
</svg>
