<svg width="198" height="99" viewBox="0 0 198 99" fill="none" xmlns="http://www.w3.org/2000/svg">
<g clip-path="url(#clip0)">
<path d="M64.282 97.5498H34.7181L25.0343 89.8199C27.6358 82.0386 33.3565 77.6184 33.3565 77.6184H65.6438C65.6438 77.6184 71.3648 82.0386 73.966 89.8199L64.282 97.5498Z" fill="#996ACC"/>
<path d="M30.8348 89.8199C33.4363 82.0386 39.157 77.6184 39.157 77.6184H33.3562C33.3562 77.6184 27.6355 82.0386 25.0341 89.8199H30.8348Z" fill="#6D36AB"/>
<path d="M49.564 88.8094C54.1994 88.8094 57.9571 85.0517 57.9571 80.4163C57.9571 75.7809 54.1994 72.0231 49.564 72.0231C44.9286 72.0231 41.1708 75.7809 41.1708 80.4163C41.1708 85.0517 44.9286 88.8094 49.564 88.8094Z" fill="#80E0B7"/>
<path d="M34.7181 89.8199V97.5498H23.7678C23.7678 94.6989 24.2649 92.1128 25.0343 89.8199H34.7181Z" fill="#80E0B7"/>
<path d="M25.034 89.8199C24.2646 92.1128 23.7675 94.6989 23.7675 97.5498H29.5683C29.5683 94.6989 30.0654 92.1128 30.8348 89.8199H25.034Z" fill="#00B762"/>
<path d="M75.2325 97.5498H64.2822V89.8199H73.966C74.7354 92.1128 75.2325 94.6989 75.2325 97.5498Z" fill="#80E0B7"/>
<path d="M83.9108 54.8442C89.0628 54.8442 93.2394 50.6676 93.2394 45.5155C93.2394 40.3635 89.0628 36.1869 83.9108 36.1869C78.7587 36.1869 74.5822 40.3635 74.5822 45.5155C74.5822 50.6676 78.7587 54.8442 83.9108 54.8442Z" fill="#00B762"/>
<path d="M18.2908 24.2358C18.0004 21.1192 19.5184 18.0974 22.2168 16.4749L22.2189 16.4736C23.8982 15.4639 25.1587 13.8845 25.7709 12.023L25.7746 12.012C26.7895 8.9262 29.5354 6.73466 32.7694 6.42915L32.7881 6.42741C34.7341 6.24353 36.5497 5.36838 37.9058 3.96053L37.9125 3.95338C40.1692 1.61044 43.6006 0.828886 46.6493 1.96371C48.4881 2.64801 50.5116 2.64801 52.3505 1.96371C55.3992 0.82908 58.8305 1.61044 61.0872 3.95338L61.0942 3.96053C62.4502 5.36838 64.2659 6.24353 66.2118 6.42722L66.2306 6.42896C69.4645 6.73447 72.2106 8.9262 73.2254 12.0118L73.229 12.023C73.8412 13.8843 75.1017 15.4639 76.781 16.4736L76.7832 16.4749C79.4815 18.0974 80.9996 21.1192 80.709 24.2358L73.6788 30.9257H27.707L18.2908 24.2358Z" fill="#FFA1AC"/>
<path d="M26.0291 25.8397C25.7075 22.3892 27.3882 19.0437 30.3756 17.2474L30.3781 17.2459C32.2373 16.1281 33.6329 14.3793 34.3107 12.3187L34.3147 12.3063C35.4383 8.89004 38.4785 6.46357 42.059 6.12538L42.0796 6.12345C44.2341 5.92004 46.2442 4.95111 47.7455 3.39244L47.753 3.38452C48.0836 3.04111 48.4377 2.72903 48.8099 2.4473C48.0767 2.38504 47.3497 2.22436 46.6495 1.9639C43.6008 0.829272 40.1695 1.61083 37.9128 3.95377L37.906 3.96092C36.55 5.36877 34.7343 6.24391 32.7883 6.4278L32.7696 6.42954C29.5357 6.73505 26.7896 8.92677 25.7746 12.0124L25.7709 12.0234C25.1588 13.8847 23.8983 15.4643 22.2189 16.474L22.2168 16.4753C19.5185 18.0978 18.0004 21.1196 18.291 24.2362L27.7072 30.926H33.1882L26.0291 25.8397Z" fill="#FD5C6F"/>
<path d="M80.2404 23.9496C80.1967 23.9248 80.1531 23.9001 80.1094 23.8755C77.3959 22.3416 74.0773 22.3416 71.3639 23.8755C68.6505 25.4095 65.3317 25.4095 62.6184 23.8755C59.905 22.3416 56.5862 22.3416 53.873 23.8755C51.1596 25.4095 47.841 25.4095 45.1275 23.8755C42.4141 22.3416 39.0955 22.3416 36.3821 23.8755C33.6687 25.4095 30.3501 25.4095 27.6366 23.8755C24.9232 22.3416 21.6046 22.3416 18.8912 23.8755L18.7601 23.9496C16.1389 25.4313 14.5184 28.2093 14.5184 31.2203V46.2772C14.5184 65.553 30.2888 81.5933 49.5644 81.5589C68.8551 81.5243 84.4826 65.8755 84.4826 46.5769V31.2203C84.482 28.2093 82.8616 25.4315 80.2404 23.9496Z" fill="#80E0B7"/>
<path d="M20.3188 46.2773V23.2312C19.8296 23.4031 19.351 23.6156 18.8908 23.8756L18.7597 23.9497C16.1385 25.4314 14.518 28.2094 14.518 31.2204V36.206C9.63218 36.5014 5.76074 40.5554 5.76074 45.5155C5.76074 50.6675 9.93731 54.8441 15.0894 54.8441C15.2582 54.8441 15.4206 54.8391 15.5782 54.8302C19.4152 70.0738 33.2302 81.588 49.564 81.5588C50.5277 81.5571 51.4819 81.5147 52.4259 81.4364C34.5119 79.9357 20.3188 64.5635 20.3188 46.2773Z" fill="#00B762"/>
<path d="M29.5865 59.6567C33.6445 59.6567 36.9341 57.037 36.9341 53.8055C36.9341 50.5739 33.6445 47.9542 29.5865 47.9542C25.5285 47.9542 22.2388 50.5739 22.2388 53.8055C22.2388 57.037 25.5285 59.6567 29.5865 59.6567Z" fill="#FFA1AC"/>
<path d="M69.4135 59.6567C73.4715 59.6567 76.7612 57.037 76.7612 53.8055C76.7612 50.5739 73.4715 47.9542 69.4135 47.9542C65.3555 47.9542 62.0659 50.5739 62.0659 53.8055C62.0659 57.037 65.3555 59.6567 69.4135 59.6567Z" fill="#FFA1AC"/>
<path d="M56.6168 51.0999L57.8947 58.2711C58.2801 60.4338 56.8394 62.4996 54.6765 62.885C52.5137 63.2704 50.4479 61.8296 50.0625 59.6669L48.7846 52.4958L56.6168 51.0999Z" fill="#FD5C6F"/>
<path d="M49.5269 53.5524C53.1479 53.5459 56.3768 55.9731 58.3996 52.9687C60.4513 49.9211 55.835 45.2097 49.5118 45.2212C43.1886 45.2328 38.5895 49.961 40.6523 53.001C42.6858 55.998 45.906 53.559 49.5269 53.5524Z" fill="#5C576E"/>
<path d="M39.0194 45.2412C39.4993 42.122 37.3597 39.2045 34.2406 38.7246C31.1215 38.2447 28.2039 40.3843 27.724 43.5034C27.2442 46.6226 29.3837 49.5401 32.5029 50.02C35.622 50.4999 38.5395 48.3603 39.0194 45.2412Z" fill="white"/>
<path d="M71.3611 44.5448C71.5158 41.3909 69.0845 38.7088 65.9307 38.5541C62.7768 38.3994 60.0947 40.8307 59.94 43.9846C59.7853 47.1384 62.2166 49.8205 65.3705 49.9752C68.5243 50.1299 71.2064 47.6986 71.3611 44.5448Z" fill="white"/>
<path d="M26.2108 44.3512C26.2143 46.2655 26.963 48.0638 28.319 49.4148C32.8284 53.9077 40.5552 50.6718 40.5436 44.3249C40.5364 40.4202 37.3882 37.1716 33.3642 37.1716C29.4125 37.179 26.2035 40.3998 26.2108 44.3512ZM36.3883 41.3161C39.0741 43.9924 37.1602 48.5974 33.385 48.6042C30.993 48.6042 29.1155 46.6729 29.1112 44.346C29.1043 40.5691 33.7031 38.6411 36.3883 41.3161Z" fill="black"/>
<path d="M65.6559 51.4458C67.5702 51.4423 69.3684 50.6936 70.7196 49.3376C75.2048 44.8358 71.9925 37.113 65.6298 37.113C61.6783 37.1202 58.4694 40.341 58.4765 44.2925C58.4837 48.1792 61.6327 51.4458 65.6559 51.4458ZM65.643 40.0134C69.4415 40.0134 71.3252 44.6204 68.665 47.2905C65.9992 49.9662 61.3839 48.0837 61.3769 44.2872C61.3726 41.9315 63.2877 40.0134 65.643 40.0134Z" fill="black"/>
<path d="M33.3831 47.5586C35.1616 47.5553 36.6008 46.1109 36.5975 44.3326C36.5942 42.5543 35.1498 41.1151 33.3715 41.1184C31.593 41.1217 30.154 42.566 30.1573 44.3444C30.1602 46.1227 31.6046 47.5617 33.3831 47.5586Z" fill="black"/>
<path d="M65.6465 46.2388C66.7287 46.2369 67.6045 45.3579 67.6023 44.2758C67.6004 43.1936 66.7216 42.3179 65.6392 42.3198C64.5569 42.3217 63.6814 43.2007 63.6833 44.283C63.6854 45.3652 64.5643 46.2407 65.6465 46.2388Z" fill="black"/>
<path d="M49.509 43.7713C42.1146 43.7847 36.6073 49.6228 39.4522 53.8158C41.7033 57.1331 45.1161 55.691 47.7916 55.1904L48.6349 59.9217C49.4839 64.6863 55.6848 66.011 58.4307 62.0746C59.2602 60.8854 59.5767 59.4445 59.3224 58.0171L58.7454 54.7793C60.4658 53.2224 60.8134 51.0235 59.6937 48.9242C58.2504 46.2189 54.3641 43.7713 49.509 43.7713ZM45.79 52.6545C43.4246 53.2007 42.597 53.2848 41.8522 52.1871C40.6841 50.4654 44.0695 46.6717 49.5352 46.6717C54.9243 46.6717 58.3788 50.4028 57.1964 52.1591C56.9948 52.4586 56.7527 52.7223 56.4234 52.8701C55.0018 53.5161 51.975 51.8688 48.8594 52.1283C47.7564 52.2032 46.721 52.4396 45.79 52.6545ZM54.4221 61.4575C53.0471 61.7029 51.7354 60.7881 51.4902 59.4126L50.7204 55.0929C52.4748 55.3406 54.2827 56.0222 56.0005 55.9087L56.4669 58.5258C56.7121 59.901 55.7975 61.2124 54.4221 61.4575Z" fill="black"/>
<path d="M85.9322 34.9313V31.2205C85.9322 28.196 84.5288 25.3619 82.1922 23.5202C82.2023 20.1658 80.4346 16.9787 77.5282 15.2313C76.1474 14.401 75.1099 13.1008 74.6029 11.5594C73.4079 7.92577 70.1749 5.34538 66.3689 4.98593C66.3368 4.97684 64.0292 4.91787 62.1316 2.94773C59.4735 0.188104 55.4355 -0.731513 51.8445 0.604987C50.3324 1.16766 48.667 1.16766 47.1549 0.604987C43.5641 -0.7319 39.5259 0.188104 36.8611 2.95488C34.9739 4.91419 32.6135 4.99096 32.6329 4.98554C28.8247 5.34538 25.5919 7.92557 24.3932 11.5702C23.8899 13.1006 22.8524 14.4008 21.4693 15.2324C18.565 16.9788 16.7975 20.1656 16.8076 23.52C14.4714 25.3612 13.0676 28.1956 13.0676 31.2205V34.9313C8.06038 35.8826 4.31036 40.2914 4.31036 45.5156C4.31036 51.2489 8.81003 55.9495 14.4633 56.2749C15.4821 59.8511 17.0483 63.2759 19.1308 66.4398C19.5709 67.1086 20.4704 67.2941 21.1394 66.8538C21.8084 66.4135 21.9937 65.5142 21.5534 64.8452C18.3105 59.9184 16.4118 54.2831 16.037 48.4133C15.9421 46.9225 15.9678 31.2459 15.968 31.2205C15.968 27.2899 19.1053 25.4285 19.0879 25.4478C21.5996 23.8019 24.6021 23.8267 26.9224 25.1384C30.0598 26.9119 33.9578 26.9121 37.0952 25.1384C39.3523 23.8624 42.1564 23.8624 44.4133 25.1384C47.5219 26.8955 51.4334 26.9208 54.5861 25.1384C56.843 23.8624 59.6473 23.8624 61.9042 25.1384C65.1083 26.9498 69.0223 26.8655 72.077 25.1384C76.8294 22.4519 83.0314 25.7208 83.0314 31.2205C83.0438 47.9695 83.241 49.7335 82.0892 54.4927C78.0762 71.1083 62.0691 82.0951 45.1129 79.8083C37.4775 78.7643 30.3048 75.0294 24.9538 69.2037C24.412 68.6137 23.4947 68.5749 22.9048 69.1167C22.3148 69.6584 22.276 70.5758 22.8178 71.1657C25.2264 73.788 27.9766 76.0192 30.9615 77.8151C25.7371 82.9098 22.317 89.9544 22.317 97.5496C22.317 98.3505 22.9663 98.9998 23.7671 98.9998H75.2317C76.0326 98.9998 76.6819 98.3505 76.6819 97.5496C76.6819 93.4589 75.7137 89.4296 73.75 85.5833C73.3857 84.87 72.5121 84.5873 71.7988 84.9512C71.0855 85.3155 70.8026 86.1891 71.1667 86.9024C71.414 87.3866 71.6449 87.8766 71.8579 88.3693H64.2814C63.4805 88.3693 62.8312 89.0186 62.8312 89.8195V96.0996H36.1683V89.8198C36.1683 89.0189 35.519 88.3696 34.7181 88.3696H27.1411C29.1831 83.6482 32.3171 80.4833 33.6308 79.2928C35.6123 80.2716 37.6823 81.0607 39.8038 81.6585C40.4206 86.4919 44.585 90.2597 49.564 90.2597C54.5376 90.2597 58.6967 86.502 59.3217 81.6771C61.4305 81.0904 63.4758 80.3122 65.4392 79.3554C66.0891 79.9481 67.1307 80.9752 68.2537 82.3883C68.752 83.0153 69.6641 83.1199 70.2914 82.6215C70.9184 82.1232 71.0228 81.2109 70.5245 80.5838C69.6397 79.4703 68.8025 78.5746 68.1238 77.905C75.8823 73.2747 82.0646 65.646 84.6357 56.2673C90.242 55.8928 94.6896 51.2153 94.6896 45.5156C94.6894 40.2914 90.9394 35.8826 85.9322 34.9313ZM7.21095 45.5156C7.21095 41.888 9.68324 38.7966 13.0678 37.9007C13.0711 45.1045 12.818 48.5305 13.7461 53.2796C10.0394 52.6403 7.21095 49.4021 7.21095 45.5156ZM53.1591 22.6135C50.902 23.8895 48.0979 23.8895 45.8411 22.6135C42.7036 20.8398 38.8057 20.8398 35.6682 22.6135C33.4088 23.8909 30.6047 23.888 28.3502 22.6135C25.75 21.1436 22.6499 20.9054 19.9145 21.8357C20.346 20.1436 21.4283 18.6419 22.9664 17.7169C24.943 16.5285 26.4282 14.6674 27.1525 12.4656C27.9874 9.92723 30.2457 8.12473 32.9011 7.87395C32.9645 7.85616 36.2576 7.76315 38.9575 4.96021C40.8143 3.03223 43.6354 2.39008 46.1439 3.32343C48.3083 4.12915 50.6924 4.12915 52.8567 3.32343C55.3654 2.38969 58.1863 3.03223 60.0501 4.96737C62.7465 7.76682 66.1138 7.87897 66.0945 7.87356C68.7547 8.12473 71.0133 9.92742 71.8518 12.4769C72.5724 14.6676 74.0576 16.5285 76.0362 17.7185C77.5729 18.6423 78.6547 20.1436 79.0861 21.8357C76.7917 21.0535 74.1583 21.0827 71.7684 22.0719C70.4454 22.6195 68.3032 24.2801 64.8603 23.258C64.2709 23.0828 63.7697 22.8612 63.3322 22.6137C60.1945 20.84 56.2964 20.84 53.1591 22.6135ZM65.7321 91.27H72.8984C73.3513 92.8509 73.6316 94.4674 73.7358 96.0996H65.7321V91.27ZM33.2679 91.27V96.0996H25.2641C25.3684 94.4674 25.6487 92.8509 26.1016 91.27H33.2679ZM49.564 87.3593C46.4412 87.3593 43.7717 85.2585 42.9128 82.396C47.1025 83.1818 51.6612 83.2369 56.2161 82.3925C55.3584 85.2568 52.6883 87.3593 49.564 87.3593ZM85.32 53.2678C86.1447 48.8021 85.9032 46.3791 85.9322 37.9009C89.3164 38.7971 91.789 41.8884 91.789 45.5158C91.789 49.3789 88.994 52.6014 85.32 53.2678Z" fill="black"/>
</g>
<g clip-path="url(#clip1)">
<path d="M156.265 79.0715L161.099 88.3106L156.265 97.5497H140.734L135.981 88.3106L140.734 79.0715H156.265Z" fill="#D9D9D9"/>
<path d="M180.257 51.0439C184.388 51.0439 187.737 47.6949 187.737 43.5636C187.737 39.4324 184.388 36.0833 180.257 36.0833C176.126 36.0833 172.777 39.4324 172.777 43.5636C172.777 47.6949 176.126 51.0439 180.257 51.0439Z" fill="#8048BE"/>
<path d="M116.743 15.8691H180.257V68.1645H116.743V15.8691Z" fill="#8C67CB"/>
<path d="M116.743 15.8691V36.0833C112.612 36.0833 109.263 39.4325 109.263 43.5636C109.263 47.6947 112.612 51.0439 116.743 51.0439V68.1645H122.544V15.8691H116.743Z" fill="#8048BE"/>
<path d="M140.734 79.0715V97.5497H125.126C125.126 85.707 134.095 79.0715 134.095 79.0715H140.734Z" fill="#DC6742"/>
<path d="M139.896 79.0715H134.095C134.095 79.0715 125.126 85.707 125.126 97.5497H130.927C130.927 85.707 139.896 79.0715 139.896 79.0715Z" fill="#A24425"/>
<path d="M171.873 97.5497H156.266V79.0715H162.905C162.905 79.0715 171.873 85.707 171.873 97.5497Z" fill="#DC6742"/>
<path d="M170.948 1.4502H126.052C119.771 1.4502 114.68 6.54174 114.68 12.8222V15.3959C114.68 17.9291 117.573 19.3738 119.598 17.8517C120.691 17.0299 122.196 17.0299 123.289 17.8517L126.362 20.161C127.455 20.9828 128.96 20.9828 130.054 20.161L133.126 17.8517C134.219 17.0299 135.724 17.0299 136.818 17.8517L139.89 20.161C140.983 20.9828 142.488 20.9828 143.582 20.161L146.654 17.8517C147.747 17.0299 149.252 17.0299 150.346 17.8517L153.418 20.161C154.512 20.9828 156.016 20.9828 157.11 20.161L160.182 17.8517C161.276 17.0299 162.781 17.0299 163.874 17.8517L166.946 20.161C168.04 20.9828 169.545 20.9828 170.638 20.161L173.71 17.8517C174.804 17.0299 176.309 17.0299 177.402 17.8517C179.427 19.3736 182.32 17.9291 182.32 15.3959V12.8222C182.321 6.54174 177.229 1.4502 170.948 1.4502Z" fill="#4F4D5F"/>
<path d="M120.48 15.396V12.8222C120.48 6.54154 125.572 1.4502 131.852 1.4502H126.051C119.771 1.4502 114.679 6.54174 114.679 12.8222V15.396C114.679 17.9292 117.573 19.3738 119.597 17.8519C120.048 17.5131 120.569 17.3163 121.102 17.2569C120.717 16.7544 120.48 16.12 120.48 15.396Z" fill="#434050"/>
<path d="M177.699 56.2718H173.146C170.948 56.2718 169.167 58.0529 169.167 60.25V66.9234H181.677V60.25C181.677 58.0531 179.896 56.2718 177.699 56.2718Z" fill="#D9D9D9"/>
<path d="M119.301 56.2718H123.854C126.052 56.2718 127.833 58.0529 127.833 60.25V66.9234H115.323V60.25C115.323 58.0531 117.104 56.2718 119.301 56.2718Z" fill="#D9D9D9"/>
<path d="M177.81 63.0566H119.19C116.699 63.0566 114.679 65.076 114.679 67.5671V69.0484C114.679 77.3845 121.437 84.1421 129.773 84.1421H167.227C175.563 84.1421 182.32 77.3843 182.32 69.0484V67.5671C182.321 65.0759 180.301 63.0566 177.81 63.0566Z" fill="#8B59C5"/>
<path d="M120.48 69.0484V67.5671C120.48 65.076 122.5 63.0566 124.991 63.0566H119.19C116.699 63.0566 114.68 65.076 114.68 67.5671V69.0484C114.68 77.3843 121.437 84.1421 129.773 84.1421H135.574C127.238 84.1421 120.48 77.3843 120.48 69.0484Z" fill="#8048BE"/>
<path d="M136.953 47.1855C137.481 43.7496 135.125 40.5356 131.689 40.007C128.253 39.4784 125.039 41.8353 124.51 45.2713C123.981 48.7073 126.338 51.9212 129.774 52.4498C133.21 52.9784 136.424 50.6215 136.953 47.1855Z" fill="white"/>
<path d="M172.58 46.4227C172.751 42.9485 170.072 39.994 166.598 39.8235C163.124 39.6531 160.169 42.3314 159.999 45.8056C159.829 49.2799 162.507 52.2344 165.981 52.4048C169.455 52.5752 172.41 49.897 172.58 46.4227Z" fill="white"/>
<path d="M155.959 29.4194L156.462 29.6497L155.926 30.8188C155.483 31.7866 156.199 32.8734 157.243 32.8734C157.793 32.8734 158.319 32.5592 158.563 32.0269L159.098 30.8578L161.466 31.9426L160.931 33.1116C160.597 33.8398 160.917 34.7005 161.645 35.034C162.374 35.3681 163.234 35.0466 163.567 34.3198L164.103 33.1507L166.471 34.2354L165.935 35.4045C165.492 36.3711 166.207 37.4591 167.253 37.4591C167.802 37.4591 168.328 37.1449 168.572 36.6126L169.108 35.4436L169.61 35.6738C170.34 36.0084 171.2 35.6856 171.533 34.9596C171.866 34.2314 171.546 33.3707 170.818 33.0372L170.316 32.8069L170.851 31.6379C171.185 30.9097 170.865 30.049 170.137 29.7155C169.409 29.3821 168.548 29.7018 168.215 30.4297L167.679 31.5988L165.311 30.5141L165.847 29.345C166.181 28.6168 165.861 27.7562 165.133 27.4226C164.405 27.0893 163.544 27.4087 163.21 28.1369L162.675 29.3059L160.307 28.221L160.842 27.052C161.176 26.3238 160.856 25.4631 160.128 25.1296C159.4 24.796 158.539 25.1157 158.206 25.8438L157.67 27.0131L157.167 26.7828C156.439 26.4493 155.578 26.7691 155.245 27.4971C154.911 28.2253 155.231 29.0859 155.959 29.4194Z" fill="black"/>
<path d="M134.286 46.1874C134.282 44.2283 132.691 42.6429 130.732 42.6464C128.773 42.6501 127.187 44.2411 127.191 46.2002C127.194 48.1593 128.786 49.7446 130.745 49.741C132.704 49.7377 134.289 48.1465 134.286 46.1874Z" fill="black"/>
<path d="M164.123 46.133C164.125 47.3252 165.094 48.2897 166.286 48.2876C167.478 48.2854 168.443 47.3173 168.44 46.125C168.438 44.9328 167.47 43.9683 166.278 43.9704C165.086 43.9726 164.121 44.9409 164.123 46.133Z" fill="black"/>
<path d="M138.485 46.1799C138.478 41.9105 135.021 38.4469 130.739 38.4469C126.453 38.4469 122.983 41.918 122.991 46.2081C122.999 50.4688 126.448 53.9411 130.738 53.9411C135.016 53.9411 138.493 50.4566 138.485 46.1799ZM130.729 41.3472C130.729 41.3463 130.736 41.3472 130.739 41.3472C133.41 41.3472 135.58 43.5063 135.585 46.1851C135.593 50.4761 130.368 52.6667 127.317 49.6273C124.243 46.5645 126.456 41.355 130.729 41.3472Z" fill="black"/>
<path d="M158.535 46.1431C158.542 50.3633 161.946 53.8761 166.296 53.8761C170.568 53.8684 174.037 50.3867 174.029 46.1149C174.021 41.8453 170.564 38.3818 166.282 38.3818C162.004 38.3818 158.527 41.8662 158.535 46.1431ZM171.128 46.1203C171.136 50.4109 165.911 52.6021 162.861 49.5625C159.809 46.5223 161.984 41.29 166.273 41.2822C168.956 41.2838 171.124 43.4411 171.128 46.1203Z" fill="black"/>
<path d="M181.707 34.7527V19.1892C182.991 18.361 183.771 16.9507 183.771 15.396V12.8222C183.771 5.75206 178.019 0 170.948 0H141.798C140.997 0 140.348 0.649301 140.348 1.4502C140.348 2.25109 140.997 2.90039 141.798 2.90039H170.948C176.419 2.90039 180.87 7.35133 180.87 12.8222V15.396C180.87 16.7389 179.343 17.4961 178.273 16.6925C176.674 15.49 174.439 15.4902 172.839 16.6925L169.767 19.0018C169.193 19.4332 168.391 19.433 167.818 19.0018L164.745 16.6925C163.145 15.49 160.911 15.4902 159.311 16.6925C156.007 19.1049 156.056 19.38 155.147 19.316C154.816 19.292 154.521 19.176 154.289 19.0018L151.217 16.6925C149.617 15.49 147.383 15.4902 145.783 16.6925L142.71 19.0018C142.137 19.433 141.335 19.4332 140.761 19.0018L137.689 16.6925C136.089 15.4902 133.854 15.4902 132.254 16.6925L129.182 19.0018C128.608 19.433 127.807 19.433 127.233 19.0018L124.161 16.6925C122.561 15.49 120.326 15.4902 118.726 16.6925C117.656 17.4961 116.13 16.7374 116.13 15.3959V12.8222C116.13 7.35133 120.58 2.90039 126.052 2.90039H135.998C136.799 2.90039 137.448 2.25109 137.448 1.4502C137.448 0.649301 136.799 0 135.998 0H126.052C118.981 0 113.229 5.75206 113.229 12.8222V15.396C113.229 16.9505 114.01 18.361 115.293 19.189V34.7527C111.056 35.4478 107.813 39.1334 107.813 43.5637C107.813 47.9941 111.056 51.6795 115.293 52.3747V56.5934C114.411 57.5588 113.873 58.8427 113.873 60.2502V64.8784C112.976 66.6452 113.297 68.0654 113.229 69.0482C113.229 77.2088 119.17 84.0036 126.953 85.3467C124.806 89.1253 123.677 93.2988 123.677 97.55C123.677 98.3509 124.326 99.0002 125.127 99.0002H171.874C172.675 99.0002 173.324 98.3509 173.324 97.55C173.324 93.3002 172.195 89.128 170.05 85.3506C172.077 85.0006 174.028 84.2753 175.796 83.2027C176.481 82.7874 176.699 81.8956 176.284 81.2107C175.869 80.5263 174.977 80.3076 174.292 80.7229C172.272 81.9478 169.964 82.6225 167.594 82.6857C166.984 82.6772 130.189 82.7021 129.453 82.6838C122.078 82.5122 116.13 76.464 116.13 69.0484V67.5671C116.13 65.8779 117.507 64.5068 119.19 64.5068C119.452 64.5068 177.818 64.4956 178.094 64.5211C179.647 64.6646 180.871 65.9725 180.871 67.5669C180.769 68.358 181.516 72.7418 178.145 77.2316C177.664 77.872 177.793 78.7812 178.434 79.2621C179.074 79.7431 179.983 79.6136 180.464 78.9732C182.628 76.0918 183.771 72.6598 183.771 69.0482C183.703 68.0604 184.026 66.646 183.128 64.8784V60.2502C183.128 58.8427 182.59 57.559 181.708 56.5936V52.3749C185.945 51.6799 189.188 47.9943 189.188 43.5639C189.188 39.1334 185.944 35.4478 181.707 34.7527ZM170.376 96.0996H157.716V85.5921H166.809C168.934 88.8537 170.13 92.379 170.376 96.0996ZM154.815 96.0996H142.185V85.5921H154.815V96.0996ZM139.284 85.5921V96.0996H126.624C126.87 92.3792 128.066 88.8539 130.191 85.5921H139.284ZM110.713 43.5637C110.713 40.7385 112.666 38.3608 115.293 37.7097V49.4174C112.666 48.7666 110.713 46.3888 110.713 43.5637ZM116.773 62.1202V60.2502C116.773 59.1415 117.495 58.1787 118.526 57.845C119.111 57.6584 119.143 57.7334 123.854 57.7222C125.248 57.7222 126.382 58.8563 126.382 60.2502V61.6062H119.19C118.33 61.6062 117.512 61.7909 116.773 62.1202ZM123.854 54.8216C119.5 54.8541 119.125 54.7416 118.193 54.9357C118.193 44.3677 118.193 30.9468 118.193 19.9073C119.001 19.8294 119.782 19.5272 120.469 19.0113C121.043 18.5799 121.844 18.5801 122.418 19.0113L125.49 21.3206C127.044 22.4883 129.289 22.5503 130.925 21.3206L133.997 19.0115C134.571 18.5801 135.373 18.5803 135.946 19.0115L139.019 21.3208C140.618 22.5233 142.853 22.5235 144.453 21.3208L147.525 19.0111C148.099 18.5797 148.901 18.5799 149.475 19.0111L152.547 21.3204C154.14 22.5181 156.378 22.526 157.982 21.3204L161.054 19.0113C161.628 18.5799 162.429 18.5801 163.003 19.0113L166.075 21.3206C167.675 22.5233 169.91 22.5231 171.51 21.3206L174.582 19.0115C175.156 18.5801 175.957 18.5803 176.531 19.0115C177.218 19.5276 177.999 19.8298 178.807 19.9077V54.9361C177.874 54.7418 177.497 54.8545 173.146 54.822C170.153 54.822 167.717 57.2572 167.717 60.2504V61.6064H129.283V60.2504C129.283 57.257 126.848 54.8216 123.854 54.8216ZM170.618 61.6062V60.2502C170.618 58.8563 171.752 57.7222 173.146 57.7222C177.905 57.7269 178.056 57.6503 178.701 57.9303C179.593 58.3166 180.227 59.2082 180.227 60.2502V62.1202C179.488 61.7909 178.67 61.6062 177.81 61.6062H170.618ZM181.707 49.4176V37.7099C184.334 38.361 186.287 40.7387 186.287 43.5639C186.287 46.389 184.334 48.7666 181.707 49.4176Z" fill="black"/>
</g>
<defs>
<clipPath id="clip0">
<rect width="99" height="99" fill="white"/>
</clipPath>
<clipPath id="clip1">
<rect width="99" height="99" fill="white" transform="translate(99)"/>
</clipPath>
</defs>
</svg>
